<?xml version="1.0" encoding="utf-8" standalone="no"?>
<!DOCTYPE svg PUBLIC "-//W3C//DTD SVG 1.1//EN"
  "http://www.w3.org/Graphics/SVG/1.1/DTD/svg11.dtd">
<svg xmlns:xlink="http://www.w3.org/1999/xlink" width="1000.8pt" height="567.207344pt" viewBox="0 0 1000.8 567.207344" xmlns="http://www.w3.org/2000/svg" version="1.1">
 <metadata>
  <rdf:RDF xmlns:dc="http://purl.org/dc/elements/1.1/" xmlns:cc="http://creativecommons.org/ns#" xmlns:rdf="http://www.w3.org/1999/02/22-rdf-syntax-ns#">
   <cc:Work>
    <dc:type rdf:resource="http://purl.org/dc/dcmitype/StillImage"/>
    <dc:date>2026-01-24T17:19:22.792944</dc:date>
    <dc:format>image/svg+xml</dc:format>
    <dc:creator>
     <cc:Agent>
      <dc:title>Matplotlib v3.10.1, https://matplotlib.org/</dc:title>
     </cc:Agent>
    </dc:creator>
   </cc:Work>
  </rdf:RDF>
 </metadata>
 <defs>
  <style type="text/css">*{stroke-linejoin: round; stroke-linecap: butt}</style>
 </defs>
 <g id="figure_1">
  <g id="patch_1">
   <path d="M 0 567.207344 
L 1000.8 567.207344 
L 1000.8 0 
L 0 0 
z
" style="fill: #ffffff"/>
  </g>
  <g id="axes_1">
   <g id="patch_2">
    <path d="M 59.2 287.989375 
L 993.6 287.989375 
L 993.6 79.3225 
L 59.2 79.3225 
z
" style="fill: #ffffff"/>
   </g>
   <g id="patch_3">
    <path d="M 59.2 88.807358 
L 66.856506 88.807358 
L 66.856506 106.052554 
L 59.2 106.052554 
z
" clip-path="url(#pa313492696)" style="fill: #66c2a5; stroke: #ffffff; stroke-width: 0.5; stroke-linejoin: miter"/>
   </g>
   <g id="patch_4">
    <path d="M 66.856506 117.549352 
L 74.513012 117.549352 
L 74.513012 134.794548 
L 66.856506 134.794548 
z
" clip-path="url(#pa313492696)" style="fill: #66c2a5; stroke: #ffffff; stroke-width: 0.5; stroke-linejoin: miter"/>
   </g>
   <g id="patch_5">
    <path d="M 74.513012 146.291346 
L 212.330121 146.291346 
L 212.330121 163.536542 
L 74.513012 163.536542 
z
" clip-path="url(#pa313492696)" style="fill: #fc8d62; stroke: #ffffff; stroke-width: 0.5; stroke-linejoin: miter"/>
   </g>
   <g id="patch_6">
    <path d="M 212.330121 175.033339 
L 227.643133 175.033339 
L 227.643133 192.278536 
L 212.330121 192.278536 
z
" clip-path="url(#pa313492696)" style="fill: #8da0cb; stroke: #ffffff; stroke-width: 0.5; stroke-linejoin: miter"/>
   </g>
   <g id="patch_7">
    <path d="M 227.643133 203.775333 
L 365.460243 203.775333 
L 365.460243 221.020529 
L 227.643133 221.020529 
z
" clip-path="url(#pa313492696)" style="fill: #fc8d62; stroke: #ffffff; stroke-width: 0.5; stroke-linejoin: miter"/>
   </g>
   <g id="patch_8">
    <path d="M 365.460243 232.517327 
L 373.116749 232.517327 
L 373.116749 249.762523 
L 365.460243 249.762523 
z
" clip-path="url(#pa313492696)" style="fill: #66c2a5; stroke: #ffffff; stroke-width: 0.5; stroke-linejoin: miter"/>
   </g>
   <g id="patch_9">
    <path d="M 373.116749 261.259321 
L 924.385185 261.259321 
L 924.385185 278.504517 
L 373.116749 278.504517 
z
" clip-path="url(#pa313492696)" style="fill: #e78ac3; stroke: #ffffff; stroke-width: 0.5; stroke-linejoin: miter"/>
   </g>
   <g id="matplotlib.axis_1">
    <g id="xtick_1">
     <g id="line2d_1">
      <path d="M 59.2 287.989375 
L 59.2 79.3225 
" clip-path="url(#pa313492696)" style="fill: none; stroke-dasharray: 2.96,1.28; stroke-dashoffset: 0; stroke: #b0b0b0; stroke-opacity: 0.3; stroke-width: 0.8"/>
     </g>
     <g id="line2d_2">
      <defs>
       <path id="m822ddfd2fb" d="M 0 0 
L 0 3.5 
" style="stroke: #000000; stroke-width: 0.8"/>
      </defs>
      <g>
       <use xlink:href="#m822ddfd2fb" x="59.2" y="287.989375" style="stroke: #000000; stroke-width: 0.8"/>
      </g>
     </g>
    </g>
    <g id="xtick_2">
     <g id="line2d_3">
      <path d="M 212.330121 287.989375 
L 212.330121 79.3225 
" clip-path="url(#pa313492696)" style="fill: none; stroke-dasharray: 2.96,1.28; stroke-dashoffset: 0; stroke: #b0b0b0; stroke-opacity: 0.3; stroke-width: 0.8"/>
     </g>
     <g id="line2d_4">
      <g>
       <use xlink:href="#m822ddfd2fb" x="212.330121" y="287.989375" style="stroke: #000000; stroke-width: 0.8"/>
      </g>
     </g>
    </g>
    <g id="xtick_3">
     <g id="line2d_5">
      <path d="M 365.460243 287.989375 
L 365.460243 79.3225 
" clip-path="url(#pa313492696)" style="fill: none; stroke-dasharray: 2.96,1.28; stroke-dashoffset: 0; stroke: #b0b0b0; stroke-opacity: 0.3; stroke-width: 0.8"/>
     </g>
     <g id="line2d_6">
      <g>
       <use xlink:href="#m822ddfd2fb" x="365.460243" y="287.989375" style="stroke: #000000; stroke-width: 0.8"/>
      </g>
     </g>
    </g>
    <g id="xtick_4">
     <g id="line2d_7">
      <path d="M 518.590364 287.989375 
L 518.590364 79.3225 
" clip-path="url(#pa313492696)" style="fill: none; stroke-dasharray: 2.96,1.28; stroke-dashoffset: 0; stroke: #b0b0b0; stroke-opacity: 0.3; stroke-width: 0.8"/>
     </g>
     <g id="line2d_8">
      <g>
       <use xlink:href="#m822ddfd2fb" x="518.590364" y="287.989375" style="stroke: #000000; stroke-width: 0.8"/>
      </g>
     </g>
    </g>
    <g id="xtick_5">
     <g id="line2d_9">
      <path d="M 671.720485 287.989375 
L 671.720485 79.3225 
" clip-path="url(#pa313492696)" style="fill: none; stroke-dasharray: 2.96,1.28; stroke-dashoffset: 0; stroke: #b0b0b0; stroke-opacity: 0.3; stroke-width: 0.8"/>
     </g>
     <g id="line2d_10">
      <g>
       <use xlink:href="#m822ddfd2fb" x="671.720485" y="287.989375" style="stroke: #000000; stroke-width: 0.8"/>
      </g>
     </g>
    </g>
    <g id="xtick_6">
     <g id="line2d_11">
      <path d="M 824.850606 287.989375 
L 824.850606 79.3225 
" clip-path="url(#pa313492696)" style="fill: none; stroke-dasharray: 2.96,1.28; stroke-dashoffset: 0; stroke: #b0b0b0; stroke-opacity: 0.3; stroke-width: 0.8"/>
     </g>
     <g id="line2d_12">
      <g>
       <use xlink:href="#m822ddfd2fb" x="824.850606" y="287.989375" style="stroke: #000000; stroke-width: 0.8"/>
      </g>
     </g>
    </g>
    <g id="xtick_7">
     <g id="line2d_13">
      <path d="M 977.980728 287.989375 
L 977.980728 79.3225 
" clip-path="url(#pa313492696)" style="fill: none; stroke-dasharray: 2.96,1.28; stroke-dashoffset: 0; stroke: #b0b0b0; stroke-opacity: 0.3; stroke-width: 0.8"/>
     </g>
     <g id="line2d_14">
      <g>
       <use xlink:href="#m822ddfd2fb" x="977.980728" y="287.989375" style="stroke: #000000; stroke-width: 0.8"/>
      </g>
     </g>
    </g>
   </g>
   <g id="matplotlib.axis_2">
    <g id="ytick_1">
     <g id="line2d_15">
      <defs>
       <path id="m7913e2c82d" d="M 0 0 
L -3.5 0 
" style="stroke: #000000; stroke-width: 0.8"/>
      </defs>
      <g>
       <use xlink:href="#m7913e2c82d" x="59.2" y="97.429956" style="stroke: #000000; stroke-width: 0.8"/>
      </g>
     </g>
     <g id="text_1">
      <!-- Token验证 -->
      <g transform="translate(7.2 101.414331) scale(0.1 -0.1)">
       <defs>
        <path id="SimHei-54" d="M 2850 3925 
L 1850 3925 
L 1850 125 
L 1275 125 
L 1275 3925 
L 275 3925 
L 275 4400 
L 2850 4400 
L 2850 3925 
z
" transform="scale(0.015625)"/>
        <path id="SimHei-6f" d="M 2925 1525 
Q 2925 875 2525 475 
Q 2125 75 1575 75 
Q 1025 75 625 475 
Q 225 875 225 1525 
Q 225 2175 625 2575 
Q 1025 2975 1575 2975 
Q 2125 2975 2525 2575 
Q 2925 2175 2925 1525 
z
M 2375 1525 
Q 2375 2025 2125 2275 
Q 1875 2525 1575 2525 
Q 1275 2525 1025 2275 
Q 775 2025 775 1525 
Q 775 1025 1025 775 
Q 1275 525 1575 525 
Q 1875 525 2125 775 
Q 2375 1025 2375 1525 
z
" transform="scale(0.015625)"/>
        <path id="SimHei-6b" d="M 2925 125 
L 2350 125 
L 1450 1650 
L 875 1100 
L 875 125 
L 375 125 
L 375 4400 
L 875 4400 
L 875 1675 
L 2125 2925 
L 2750 2925 
L 1775 1975 
L 2925 125 
z
" transform="scale(0.015625)"/>
        <path id="SimHei-65" d="M 2850 1075 
Q 2800 625 2450 350 
Q 2100 75 1625 75 
Q 1025 75 637 462 
Q 250 850 250 1525 
Q 250 2200 637 2587 
Q 1025 2975 1625 2975 
Q 2150 2975 2487 2637 
Q 2825 2300 2825 1525 
L 800 1525 
Q 800 975 1037 750 
Q 1275 525 1625 525 
Q 1900 525 2075 662 
Q 2250 800 2300 1075 
L 2850 1075 
z
M 2250 1925 
Q 2200 2275 2025 2412 
Q 1850 2550 1575 2550 
Q 1325 2550 1125 2412 
Q 925 2275 825 1925 
L 2250 1925 
z
" transform="scale(0.015625)"/>
        <path id="SimHei-6e" d="M 2800 125 
L 2300 125 
L 2300 1925 
Q 2300 2225 2150 2400 
Q 2000 2575 1750 2575 
Q 1425 2575 1137 2237 
Q 850 1900 850 1400 
L 850 125 
L 350 125 
L 350 2925 
L 850 2925 
L 850 2400 
Q 1050 2675 1287 2825 
Q 1525 2975 1900 2975 
Q 2350 2975 2575 2725 
Q 2800 2475 2800 2100 
L 2800 125 
z
" transform="scale(0.015625)"/>
        <path id="SimHei-9a8c" d="M 2300 4725 
Q 2250 4500 2225 4075 
L 2050 2125 
L 2525 2125 
Q 2500 1925 2475 1450 
L 2375 75 
Q 2375 -450 2075 -525 
Q 1775 -600 1250 -675 
Q 1175 -325 1050 -100 
Q 1575 -100 1737 -87 
Q 1900 -75 1950 150 
L 2025 1700 
L 550 1700 
Q 575 2175 587 2737 
Q 600 3300 600 3800 
L 1100 3800 
Q 1050 3525 1025 3087 
Q 1000 2650 1000 2125 
L 1625 2125 
L 1800 4325 
L 1125 4325 
Q 725 4325 350 4300 
L 350 4750 
Q 725 4725 1125 4725 
L 2300 4725 
z
M 4325 4875 
Q 4725 4125 5150 3775 
Q 5575 3425 6150 3225 
Q 5925 3025 5800 2725 
Q 5450 2925 5125 3200 
L 5125 2775 
Q 4800 2800 4200 2800 
Q 3600 2800 3225 2775 
L 3225 3175 
Q 3075 2975 2800 2650 
Q 2575 2875 2325 3000 
Q 2725 3275 2937 3550 
Q 3150 3825 3312 4125 
Q 3475 4425 3587 4675 
Q 3700 4925 3775 5225 
Q 4100 5150 4450 5075 
L 4325 4875 
z
M 5600 2150 
Q 5475 2000 5400 1737 
Q 5325 1475 5162 912 
Q 5000 350 4900 25 
L 5250 25 
Q 5425 25 5800 50 
L 5800 -400 
Q 5475 -375 5250 -375 
L 3325 -375 
Q 2875 -375 2675 -400 
L 2675 50 
Q 2975 25 3350 25 
L 4475 25 
Q 4675 575 4800 1150 
L 5050 2300 
Q 5250 2225 5600 2150 
z
M 5100 3225 
Q 4800 3450 4550 3775 
Q 4300 4100 4050 4600 
Q 3850 4200 3687 3912 
Q 3525 3625 3250 3225 
L 5100 3225 
z
M 3250 2175 
Q 3350 1825 3462 1375 
Q 3575 925 3675 550 
Q 3450 525 3250 425 
Q 3175 900 3087 1225 
Q 3000 1550 2850 2050 
Q 3050 2125 3250 2175 
z
M 1775 1125 
Q 1750 950 1725 700 
Q 1350 625 1112 575 
Q 875 525 375 375 
Q 300 650 200 925 
Q 550 950 925 1000 
Q 1300 1050 1775 1125 
z
M 4300 1650 
Q 4350 1325 4425 825 
L 4025 725 
Q 3925 1275 3875 1562 
Q 3825 1850 3750 2225 
Q 3975 2275 4200 2300 
L 4300 1650 
z
" transform="scale(0.015625)"/>
        <path id="SimHei-8bc1" d="M 5125 4675 
Q 5625 4675 6050 4700 
L 6050 4225 
Q 5625 4250 5125 4250 
L 4500 4250 
L 4500 2625 
L 5075 2625 
Q 5500 2625 5900 2650 
L 5900 2175 
Q 5525 2200 5075 2200 
L 4500 2200 
L 4500 125 
L 5200 125 
Q 5625 125 6175 150 
L 6175 -325 
Q 5625 -300 5200 -300 
L 3000 -300 
Q 2400 -300 2000 -325 
L 2000 150 
Q 2400 125 2775 125 
L 2775 2075 
Q 2775 2600 2750 2950 
L 3275 2950 
Q 3250 2625 3250 2075 
L 3250 125 
L 4000 125 
L 4000 4250 
L 3550 4250 
Q 2975 4250 2450 4225 
L 2450 4700 
Q 2975 4675 3550 4675 
L 5125 4675 
z
M 850 -125 
Q 1150 175 1150 500 
L 1150 2750 
L 925 2750 
Q 575 2750 225 2725 
L 225 3200 
Q 550 3175 925 3175 
L 1650 3175 
Q 1625 2700 1625 2175 
L 1625 800 
Q 1850 1075 2025 1325 
Q 2150 1050 2325 825 
Q 2050 500 1812 212 
Q 1575 -75 1225 -525 
Q 1050 -300 850 -125 
z
M 1525 3900 
Q 1100 4500 800 4825 
Q 1000 4975 1175 5175 
L 1925 4275 
Q 1675 4100 1525 3900 
z
" transform="scale(0.015625)"/>
       </defs>
       <use xlink:href="#SimHei-54"/>
       <use xlink:href="#SimHei-6f" transform="translate(50 0)"/>
       <use xlink:href="#SimHei-6b" transform="translate(100 0)"/>
       <use xlink:href="#SimHei-65" transform="translate(150 0)"/>
       <use xlink:href="#SimHei-6e" transform="translate(200 0)"/>
       <use xlink:href="#SimHei-9a8c" transform="translate(250 0)"/>
       <use xlink:href="#SimHei-8bc1" transform="translate(350 0)"/>
      </g>
     </g>
    </g>
    <g id="ytick_2">
     <g id="line2d_16">
      <g>
       <use xlink:href="#m7913e2c82d" x="59.2" y="126.17195" style="stroke: #000000; stroke-width: 0.8"/>
      </g>
     </g>
     <g id="text_2">
      <!-- 冻结检查 -->
      <g transform="translate(12.2 130.156325) scale(0.1 -0.1)">
       <defs>
        <path id="SimHei-51bb" d="M 5075 4300 
Q 5625 4300 5975 4325 
L 5975 3850 
Q 5550 3875 5050 3875 
L 3475 3875 
Q 3025 2950 2725 2475 
L 3800 2475 
Q 3800 3025 3775 3350 
L 4325 3350 
Q 4300 3100 4300 2475 
L 4700 2475 
Q 5275 2475 5675 2500 
L 5675 2025 
Q 5275 2050 4700 2050 
L 4300 2050 
L 4300 125 
Q 4300 -325 4025 -437 
Q 3750 -550 3275 -650 
Q 3225 -350 3075 -50 
Q 3625 -50 3712 12 
Q 3800 75 3800 350 
L 3800 2050 
Q 2675 2075 2225 1925 
Q 2150 2225 2050 2450 
Q 2250 2550 2462 2887 
Q 2675 3225 2950 3875 
Q 2225 3875 1850 3850 
L 1850 4325 
Q 2250 4300 3125 4300 
Q 3375 5000 3400 5250 
Q 3675 5125 3975 5025 
Q 3875 4925 3625 4300 
L 5075 4300 
z
M 1750 2075 
Q 1525 1700 1225 1075 
Q 925 450 725 75 
Q 500 325 250 450 
Q 575 900 837 1425 
Q 1100 1950 1300 2425 
Q 1475 2200 1750 2075 
z
M 3250 1200 
Q 3100 1050 2750 637 
Q 2400 225 2000 -225 
Q 1850 0 1600 150 
Q 1900 400 2250 812 
Q 2600 1225 2800 1575 
Q 3025 1375 3250 1200 
z
M 5075 1575 
Q 5325 1300 5575 975 
Q 5825 650 6100 275 
Q 5850 150 5650 -50 
Q 5425 375 4700 1250 
Q 4900 1375 5075 1575 
z
M 825 4675 
Q 1475 3875 1725 3550 
Q 1525 3450 1250 3225 
Q 1050 3600 400 4350 
Q 650 4500 825 4675 
z
" transform="scale(0.015625)"/>
        <path id="SimHei-7ed3" d="M 5725 1925 
Q 5700 1600 5700 1200 
L 5700 350 
Q 5700 -125 5725 -475 
L 5225 -475 
L 5225 0 
L 3525 0 
L 3525 -525 
L 3025 -525 
Q 3050 125 3050 325 
L 3050 1250 
Q 3050 1550 3025 1925 
L 5725 1925 
z
M 1900 4850 
Q 1700 4600 1475 4200 
Q 1250 3800 925 3200 
Q 1475 3225 1725 3225 
Q 1950 3625 2100 4000 
Q 2350 3825 2650 3675 
Q 2525 3575 2212 3125 
Q 1900 2675 1225 1650 
Q 2050 1775 2525 1850 
Q 2450 1575 2450 1375 
Q 2225 1350 1650 1275 
Q 1075 1200 525 1050 
Q 425 1300 350 1550 
Q 650 1625 950 2012 
Q 1250 2400 1475 2825 
Q 1300 2825 962 2787 
Q 625 2750 375 2675 
Q 300 2925 225 3150 
Q 500 3375 812 3925 
Q 1125 4475 1300 5125 
Q 1600 4975 1900 4850 
z
M 4075 4175 
Q 4075 4600 4050 5175 
L 4575 5175 
Q 4550 4725 4550 4175 
L 5275 4175 
Q 5750 4175 6150 4200 
L 6150 3750 
Q 5750 3775 5300 3775 
L 4550 3775 
L 4550 2950 
L 5125 2950 
Q 5475 2950 5825 2975 
L 5825 2525 
Q 5525 2550 5100 2550 
L 3650 2550 
Q 3225 2550 2900 2525 
L 2900 2975 
Q 3225 2950 3600 2950 
L 4075 2950 
L 4075 3775 
L 3525 3775 
Q 3075 3775 2675 3750 
L 2675 4200 
Q 3000 4175 3475 4175 
L 4075 4175 
z
M 5225 400 
L 5225 1525 
L 3525 1525 
L 3525 400 
L 5225 400 
z
M 2575 650 
Q 2500 425 2525 175 
Q 2050 100 1450 0 
Q 850 -100 425 -225 
Q 325 100 225 350 
Q 750 375 1175 437 
Q 1600 500 2575 650 
z
" transform="scale(0.015625)"/>
        <path id="SimHei-68c0" d="M 1250 4575 
Q 1250 4850 1225 5150 
L 1750 5150 
Q 1700 4850 1700 4575 
L 1700 3900 
L 1950 3900 
Q 2100 3900 2475 3925 
L 2475 3450 
Q 2050 3475 1875 3475 
L 1700 3475 
L 1700 2325 
Q 1900 2400 2050 2525 
Q 2125 2400 2250 2187 
Q 2375 1975 2500 1750 
Q 2325 1675 2075 1500 
Q 2000 1625 1912 1837 
Q 1825 2050 1700 2175 
L 1700 300 
Q 1700 -175 1725 -625 
L 1225 -625 
Q 1250 -225 1250 300 
L 1250 2300 
Q 1150 2050 950 1637 
Q 750 1225 575 950 
Q 400 1200 175 1325 
Q 400 1575 550 1862 
Q 700 2150 837 2437 
Q 975 2725 1062 2987 
Q 1150 3250 1200 3475 
L 950 3475 
Q 825 3475 425 3450 
L 425 3925 
Q 800 3900 950 3900 
L 1250 3900 
L 1250 4575 
z
M 4912 3225 
Q 4675 3425 4462 3712 
Q 4250 4000 3975 4450 
Q 3775 4025 3600 3737 
Q 3425 3450 3225 3200 
L 4850 3200 
L 4850 2750 
Q 4675 2775 4500 2775 
L 3750 2775 
Q 3450 2775 3150 2750 
L 3150 3075 
L 2875 2800 
Q 2700 2600 2550 2450 
Q 2400 2675 2100 2825 
Q 2475 3075 2750 3387 
Q 3025 3700 3212 3987 
Q 3400 4275 3537 4587 
Q 3675 4900 3725 5175 
Q 4050 5100 4325 5025 
Q 4225 4900 4200 4825 
Q 4675 3975 5200 3637 
Q 5725 3300 6150 3150 
Q 5900 2925 5850 2625 
Q 5600 2750 5375 2887 
Q 5150 3025 4912 3225 
z
M 5675 2225 
Q 5400 1650 5225 1187 
Q 5050 725 4800 175 
L 5225 175 
Q 5600 175 5975 200 
L 5975 -250 
Q 5675 -225 5225 -225 
L 3125 -225 
Q 2425 -225 2200 -250 
L 2200 200 
Q 2450 175 3150 175 
L 4325 175 
Q 4500 525 4662 987 
Q 4825 1450 4912 1737 
Q 5000 2025 5075 2425 
Q 5400 2300 5675 2225 
z
M 3000 2200 
Q 3150 1850 3312 1462 
Q 3475 1075 3600 725 
Q 3400 650 3100 500 
Q 2975 950 2875 1200 
Q 2775 1450 2525 1950 
Q 2825 2100 3000 2200 
z
M 4000 2425 
Q 4125 2075 4275 1650 
Q 4425 1225 4500 1025 
Q 4225 975 4000 850 
Q 3900 1250 3787 1575 
Q 3675 1900 3500 2225 
Q 3800 2350 4000 2425 
z
" transform="scale(0.015625)"/>
        <path id="SimHei-67e5" d="M 2950 4375 
Q 2950 4775 2925 5150 
L 3425 5150 
Q 3400 4800 3400 4375 
L 4950 4375 
Q 5300 4375 5800 4400 
L 5800 3925 
Q 5300 3950 4950 3950 
L 4050 3950 
Q 4325 3550 4875 3250 
Q 5425 2950 6125 2775 
Q 5875 2575 5775 2275 
Q 5000 2550 4462 2950 
Q 3925 3350 3550 3950 
L 3400 3950 
L 3400 2575 
L 4975 2575 
Q 4950 2125 4950 1575 
Q 4950 1050 4975 525 
L 1425 525 
Q 1450 1000 1450 1550 
Q 1450 2125 1425 2575 
Q 1100 2375 650 2150 
Q 500 2425 300 2600 
Q 850 2725 1400 3100 
Q 1950 3475 2275 3950 
L 1550 3950 
Q 1100 3950 600 3925 
L 600 4400 
Q 1100 4375 1550 4375 
L 2950 4375 
z
M 5100 0 
Q 5525 0 5925 25 
L 5925 -425 
Q 4975 -400 4600 -400 
L 1425 -400 
Q 975 -400 525 -425 
L 525 25 
Q 1000 0 1425 0 
L 5100 0 
z
M 4500 925 
L 4500 1375 
L 1900 1375 
L 1900 925 
L 4500 925 
z
M 4500 1750 
L 4500 2175 
L 1900 2175 
L 1900 1750 
L 4500 1750 
z
M 2950 2575 
L 2950 3950 
L 2825 3950 
Q 2550 3525 2225 3200 
Q 1900 2875 1450 2575 
L 2950 2575 
z
" transform="scale(0.015625)"/>
       </defs>
       <use xlink:href="#SimHei-51bb"/>
       <use xlink:href="#SimHei-7ed3" transform="translate(100 0)"/>
       <use xlink:href="#SimHei-68c0" transform="translate(200 0)"/>
       <use xlink:href="#SimHei-67e5" transform="translate(300 0)"/>
      </g>
     </g>
    </g>
    <g id="ytick_3">
     <g id="line2d_17">
      <g>
       <use xlink:href="#m7913e2c82d" x="59.2" y="154.913944" style="stroke: #000000; stroke-width: 0.8"/>
      </g>
     </g>
     <g id="text_3">
      <!-- 网络→ME -->
      <g transform="translate(12.2 158.898319) scale(0.1 -0.1)">
       <defs>
        <path id="SimHei-7f51" d="M 5875 4900 
Q 5825 4575 5825 3975 
L 5825 0 
Q 5825 -400 5537 -462 
Q 5250 -525 4775 -600 
Q 4725 -350 4525 -50 
Q 5025 -75 5175 -25 
Q 5325 25 5325 250 
L 5325 4475 
L 1100 4475 
L 1100 -600 
L 550 -600 
Q 600 -100 600 250 
L 600 3975 
Q 600 4375 550 4900 
L 5875 4900 
z
M 3675 3525 
Q 4050 2800 4175 2600 
Q 4475 3625 4550 4050 
Q 4825 3900 5100 3775 
Q 4975 3600 4825 3150 
Q 4675 2700 4450 2100 
Q 4725 1575 5125 875 
Q 4850 800 4625 675 
L 4175 1575 
Q 4000 1225 3825 962 
Q 3650 700 3350 300 
Q 3175 500 2850 575 
Q 3075 800 3337 1125 
Q 3600 1450 3925 2075 
Q 3575 2800 3200 3300 
Q 3400 3375 3675 3525 
z
M 1725 3800 
Q 1875 3525 2037 3237 
Q 2200 2950 2375 2675 
Q 2675 3675 2725 4050 
Q 3000 3950 3325 3850 
Q 3175 3675 3050 3312 
Q 2925 2950 2650 2200 
Q 2875 1850 3200 1300 
Q 2950 1150 2775 975 
Q 2525 1500 2400 1700 
Q 1950 775 1600 325 
Q 1400 500 1175 575 
Q 1575 1000 2150 2175 
Q 1550 3250 1250 3600 
Q 1475 3700 1725 3800 
z
" transform="scale(0.015625)"/>
        <path id="SimHei-7edc" d="M 2400 3100 
Q 2675 3400 2850 3700 
Q 3025 4000 3187 4362 
Q 3350 4725 3450 5200 
Q 3725 5075 4050 5025 
Q 3900 4800 3725 4450 
L 5750 4450 
Q 5375 3700 5125 3325 
Q 4875 2950 4600 2650 
Q 4925 2425 5375 2275 
Q 5825 2125 6200 2050 
Q 6075 1850 5950 1525 
Q 5700 1600 5500 1675 
Q 5450 1325 5450 1025 
L 5450 125 
Q 5450 -250 5475 -650 
L 5000 -650 
L 5000 -175 
L 3500 -175 
L 3500 -700 
L 3025 -700 
Q 3050 -325 3050 0 
L 3050 1000 
Q 3050 1200 3025 1675 
Q 2875 1600 2600 1500 
Q 2500 1775 2325 1975 
Q 2700 2075 3162 2262 
Q 3625 2450 3900 2675 
Q 3575 3100 3350 3625 
Q 3075 3200 2800 2825 
Q 2650 2975 2400 3100 
z
M 1825 4725 
Q 1650 4500 1425 4037 
Q 1200 3575 900 3050 
L 1600 3050 
Q 1875 3575 2000 3975 
Q 2250 3775 2500 3650 
Q 2350 3475 2050 2937 
Q 1750 2400 1225 1525 
Q 1975 1650 2300 1700 
Q 2275 1375 2300 1225 
Q 1700 1150 1375 1087 
Q 1050 1025 625 925 
Q 550 1200 450 1400 
Q 700 1500 937 1850 
Q 1175 2200 1425 2700 
Q 750 2675 400 2525 
Q 325 2750 225 3025 
Q 525 3175 825 3787 
Q 1125 4400 1275 5000 
Q 1550 4825 1825 4725 
z
M 5000 225 
L 5000 1300 
L 3500 1300 
L 3500 225 
L 5000 225 
z
M 2375 700 
Q 2425 450 2425 250 
Q 2150 200 1637 25 
Q 1125 -150 650 -350 
Q 550 -50 425 200 
Q 1050 325 1462 425 
Q 1875 525 2375 700 
z
M 4275 2975 
Q 4425 3125 4637 3425 
Q 4850 3725 5000 4050 
L 3650 4050 
Q 3900 3425 4275 2975 
z
M 5475 1700 
Q 5125 1850 4812 2000 
Q 4500 2150 4225 2350 
Q 3925 2150 3662 2000 
Q 3400 1850 3075 1700 
L 5475 1700 
z
" transform="scale(0.015625)"/>
        <path id="SimHei-2192" d="M 3900 4275 
L 5475 2300 
L 3900 400 
L 3900 1900 
L 400 1900 
L 400 2725 
L 3900 2725 
L 3900 4275 
z
" transform="scale(0.015625)"/>
        <path id="SimHei-4d" d="M 2925 125 
L 2425 125 
L 2425 3175 
L 2375 3175 
L 1775 125 
L 1375 125 
L 775 3175 
L 725 3175 
L 725 125 
L 225 125 
L 225 4400 
L 1000 4400 
L 1550 1575 
L 1600 1575 
L 2150 4400 
L 2925 4400 
L 2925 125 
z
" transform="scale(0.015625)"/>
        <path id="SimHei-45" d="M 2900 125 
L 350 125 
L 350 4400 
L 2775 4400 
L 2775 3925 
L 925 3925 
L 925 2600 
L 2625 2600 
L 2625 2125 
L 925 2125 
L 925 600 
L 2900 600 
L 2900 125 
z
" transform="scale(0.015625)"/>
       </defs>
       <use xlink:href="#SimHei-7f51"/>
       <use xlink:href="#SimHei-7edc" transform="translate(100 0)"/>
       <use xlink:href="#SimHei-2192" transform="translate(200 0)"/>
       <use xlink:href="#SimHei-4d" transform="translate(300 0)"/>
       <use xlink:href="#SimHei-45" transform="translate(350 0)"/>
      </g>
     </g>
    </g>
    <g id="ytick_4">
     <g id="line2d_18">
      <g>
       <use xlink:href="#m7913e2c82d" x="59.2" y="183.655938" style="stroke: #000000; stroke-width: 0.8"/>
      </g>
     </g>
     <g id="text_4">
      <!-- 撮合执行 -->
      <g transform="translate(12.2 187.7575) scale(0.1 -0.1)">
       <defs>
        <path id="SimHei-64ae" d="M 4225 450 
Q 4050 425 3900 375 
Q 3900 -225 3925 -625 
L 3475 -625 
Q 3500 -250 3500 275 
Q 2950 150 2625 50 
Q 2300 -50 2050 -150 
Q 1975 100 1875 325 
Q 2100 350 2325 400 
L 2325 2600 
Q 2150 2600 1950 2575 
L 1950 3000 
Q 2375 2975 2775 2975 
L 5375 2975 
Q 5725 2975 6075 3000 
L 6075 2575 
Q 5725 2600 5375 2600 
L 3900 2600 
L 3900 725 
L 4200 800 
Q 4200 525 4225 450 
z
M 5550 5100 
Q 5525 4725 5525 4200 
Q 5525 3700 5550 3300 
L 2575 3300 
Q 2600 3675 2600 4200 
Q 2600 4725 2575 5100 
L 5550 5100 
z
M 1050 4100 
Q 1050 4950 1025 5225 
L 1525 5225 
Q 1475 4950 1475 4100 
Q 1775 4100 2100 4125 
L 2100 3675 
Q 1750 3700 1475 3700 
L 1475 2400 
Q 1700 2475 1900 2575 
Q 1900 2375 1950 2150 
Q 1750 2100 1475 2000 
L 1475 125 
Q 1500 -200 1287 -300 
Q 1075 -400 600 -500 
Q 550 -225 400 0 
Q 750 0 900 25 
Q 1050 50 1050 300 
L 1050 1850 
Q 725 1750 450 1600 
Q 375 1825 200 2075 
Q 700 2150 1050 2275 
L 1050 3700 
Q 675 3700 400 3675 
L 400 4125 
Q 725 4100 1050 4100 
z
M 4100 1875 
L 4100 2250 
Q 4500 2225 4950 2225 
L 5875 2225 
Q 5850 2075 5687 1537 
Q 5525 1000 5275 525 
Q 5600 175 6150 -50 
Q 6025 -100 5875 -475 
Q 5350 -150 5025 200 
Q 4750 -150 4275 -525 
Q 4150 -350 3925 -175 
Q 4425 75 4750 500 
Q 4425 1100 4250 1875 
L 4100 1875 
z
M 5100 3650 
L 5100 4025 
L 3025 4025 
L 3025 3650 
L 5100 3650 
z
M 5100 4375 
L 5100 4750 
L 3025 4750 
L 3025 4375 
L 5100 4375 
z
M 4650 1900 
Q 4750 1275 5025 875 
Q 5275 1325 5375 1900 
L 4650 1900 
z
M 3500 2100 
L 3500 2600 
L 2725 2600 
L 2725 2100 
L 3500 2100 
z
M 3500 1000 
L 2725 1000 
L 2725 450 
Q 3050 500 3500 600 
L 3500 1000 
z
M 3500 1350 
L 3500 1750 
L 2725 1750 
L 2725 1350 
L 3500 1350 
z
" transform="scale(0.015625)"/>
        <path id="SimHei-5408" d="M 5050 1800 
Q 5025 1550 5025 650 
Q 5025 -250 5050 -525 
L 4525 -525 
L 4525 -50 
L 1750 -50 
L 1750 -600 
L 1250 -600 
Q 1275 -300 1275 550 
Q 1275 1425 1250 1800 
L 5050 1800 
z
M 3375 4800 
Q 4100 3925 4550 3600 
Q 5000 3275 5375 3100 
Q 5750 2925 6100 2825 
Q 5850 2550 5775 2300 
Q 5275 2525 4875 2775 
Q 4475 3025 4062 3412 
Q 3650 3800 3125 4475 
Q 2650 3800 2187 3362 
Q 1725 2925 1400 2675 
Q 1075 2425 675 2175 
Q 625 2275 275 2575 
Q 800 2825 1275 3175 
Q 1750 3525 2225 4062 
Q 2700 4600 3000 5225 
Q 3275 5050 3500 4950 
L 3375 4800 
z
M 4525 350 
L 4525 1400 
L 1750 1400 
L 1750 350 
L 4525 350 
z
M 3925 2825 
Q 4325 2825 4625 2850 
L 4625 2375 
Q 4300 2400 3950 2400 
L 2550 2400 
Q 2025 2400 1700 2375 
L 1700 2850 
Q 2175 2825 2550 2825 
L 3925 2825 
z
" transform="scale(0.015625)"/>
        <path id="SimHei-6267" d="M 5725 600 
Q 5900 450 6175 300 
Q 5900 -425 5637 -587 
Q 5375 -750 5037 -87 
Q 4700 575 4675 1537 
Q 4650 2500 4675 3500 
L 4000 3500 
Q 3950 2525 3850 1900 
Q 4075 1750 4500 1375 
Q 4275 1175 4125 925 
Q 3925 1175 3750 1350 
Q 3400 575 3075 187 
Q 2750 -200 2375 -600 
Q 2250 -400 1850 -175 
Q 2400 125 2787 625 
Q 3175 1125 3325 1700 
Q 3025 1925 2625 2200 
Q 2775 2375 2925 2575 
Q 3150 2425 3425 2250 
Q 3475 2725 3500 3500 
Q 3050 3500 2650 3475 
L 2650 3950 
Q 3050 3925 3500 3925 
Q 3500 4650 3475 5225 
Q 3700 5200 4025 5200 
Q 4000 4500 4000 3925 
L 5125 3925 
Q 5075 2925 5087 1900 
Q 5100 875 5362 312 
Q 5625 -250 5725 600 
z
M 600 -25 
Q 875 -50 1050 -50 
Q 1225 -50 1225 100 
L 1225 1700 
Q 725 1450 450 1275 
Q 400 1475 225 1900 
Q 550 1950 1225 2200 
L 1225 3325 
Q 700 3325 300 3300 
L 300 3775 
Q 675 3750 1225 3750 
Q 1225 4550 1200 5175 
L 1700 5175 
Q 1675 4625 1675 3750 
Q 1875 3750 2300 3775 
L 2300 3300 
Q 1900 3325 1675 3325 
L 1675 2400 
Q 1825 2450 2275 2650 
Q 2275 2425 2300 2200 
Q 2150 2125 1675 1900 
L 1675 0 
Q 1650 -300 1487 -425 
Q 1325 -550 725 -625 
Q 725 -300 600 -25 
z
" transform="scale(0.015625)"/>
        <path id="SimHei-884c" d="M 5300 3100 
Q 5775 3100 6175 3125 
L 6175 2625 
Q 5775 2650 5325 2650 
L 4975 2650 
L 4975 -75 
Q 5000 -375 4787 -487 
Q 4575 -600 3950 -675 
Q 3900 -375 3675 -75 
Q 4100 -125 4275 -112 
Q 4450 -100 4475 150 
L 4475 2650 
L 3475 2650 
Q 3000 2650 2575 2625 
L 2575 3125 
Q 3025 3100 3475 3100 
L 5300 3100 
z
M 2300 3400 
Q 2075 3275 1962 3075 
Q 1850 2875 1650 2575 
L 1650 325 
Q 1650 0 1675 -675 
L 1150 -675 
Q 1175 75 1175 450 
L 1175 2050 
Q 950 1675 575 1300 
Q 400 1550 250 1725 
Q 825 2275 1150 2775 
Q 1475 3275 1725 3725 
Q 1975 3575 2300 3400 
z
M 4875 4800 
Q 5300 4800 5750 4825 
L 5750 4350 
Q 5300 4375 4825 4375 
L 3900 4375 
Q 3350 4375 2950 4350 
L 2950 4825 
Q 3350 4800 3900 4800 
L 4875 4800 
z
M 2075 4925 
Q 1875 4900 1550 4387 
Q 1225 3875 650 3250 
Q 500 3450 325 3625 
Q 725 4025 1050 4487 
Q 1375 4950 1525 5300 
Q 1775 5150 2075 4925 
z
" transform="scale(0.015625)"/>
       </defs>
       <use xlink:href="#SimHei-64ae"/>
       <use xlink:href="#SimHei-5408" transform="translate(100 0)"/>
       <use xlink:href="#SimHei-6267" transform="translate(200 0)"/>
       <use xlink:href="#SimHei-884c" transform="translate(300 0)"/>
      </g>
     </g>
    </g>
    <g id="ytick_5">
     <g id="line2d_19">
      <g>
       <use xlink:href="#m7913e2c82d" x="59.2" y="212.397931" style="stroke: #000000; stroke-width: 0.8"/>
      </g>
     </g>
     <g id="text_5">
      <!-- 网络←ME -->
      <g transform="translate(12.2 216.382306) scale(0.1 -0.1)">
       <defs>
        <path id="SimHei-2190" d="M 2450 4275 
L 2450 2725 
L 5950 2725 
L 5950 1900 
L 2450 1900 
L 2450 400 
L 850 2325 
L 2450 4275 
z
" transform="scale(0.015625)"/>
       </defs>
       <use xlink:href="#SimHei-7f51"/>
       <use xlink:href="#SimHei-7edc" transform="translate(100 0)"/>
       <use xlink:href="#SimHei-2190" transform="translate(200 0)"/>
       <use xlink:href="#SimHei-4d" transform="translate(300 0)"/>
       <use xlink:href="#SimHei-45" transform="translate(350 0)"/>
      </g>
     </g>
    </g>
    <g id="ytick_6">
     <g id="line2d_20">
      <g>
       <use xlink:href="#m7913e2c82d" x="59.2" y="241.139925" style="stroke: #000000; stroke-width: 0.8"/>
      </g>
     </g>
     <g id="text_6">
      <!-- 清算处理 -->
      <g transform="translate(12.2 245.182894) scale(0.1 -0.1)">
       <defs>
        <path id="SimHei-6e05" d="M 4500 -125 
Q 5000 -125 5000 25 
L 5000 375 
L 2925 375 
L 2925 -600 
L 2425 -600 
Q 2450 -150 2450 300 
L 2450 1425 
Q 2450 1775 2425 2300 
L 5525 2300 
Q 5500 1825 5500 1450 
L 5500 -75 
Q 5500 -325 5375 -412 
Q 5250 -500 4775 -625 
Q 4750 -400 4500 -125 
z
M 4175 3450 
L 4175 3025 
L 4975 3025 
Q 5500 3025 6000 3050 
L 6000 2625 
Q 5450 2650 4925 2650 
L 3200 2650 
Q 2425 2650 1900 2625 
L 1900 3050 
Q 2400 3025 3100 3025 
L 3675 3025 
L 3675 3450 
L 3175 3450 
Q 2750 3450 2300 3425 
L 2300 3850 
Q 2750 3825 3175 3825 
L 3675 3825 
L 3675 4225 
L 3225 4225 
Q 2600 4225 2125 4200 
L 2125 4625 
Q 2600 4600 3200 4600 
L 3675 4600 
Q 3675 4900 3650 5175 
L 4200 5175 
Q 4175 4850 4175 4600 
L 4875 4600 
Q 5200 4600 5750 4625 
L 5750 4200 
Q 5200 4225 4900 4225 
L 4175 4225 
L 4175 3825 
L 4675 3825 
Q 4875 3825 5675 3850 
L 5675 3425 
Q 4900 3450 4700 3450 
L 4175 3450 
z
M 1875 1500 
Q 1700 1200 1362 525 
Q 1025 -150 825 -525 
Q 575 -275 375 -175 
Q 1000 600 1500 1800 
Q 1675 1650 1875 1500 
z
M 5000 1500 
L 5000 1925 
L 2925 1925 
L 2925 1500 
L 5000 1500 
z
M 5000 750 
L 5000 1125 
L 2925 1125 
L 2925 750 
L 5000 750 
z
M 1325 2350 
Q 1050 2575 800 2737 
Q 550 2900 325 3025 
Q 450 3200 575 3425 
Q 850 3250 1137 3087 
Q 1425 2925 1650 2800 
Q 1475 2575 1325 2350 
z
M 950 4900 
Q 1650 4400 1925 4175 
Q 1725 4000 1575 3800 
Q 1375 4000 1100 4225 
Q 825 4450 625 4575 
Q 825 4750 950 4900 
z
" transform="scale(0.015625)"/>
        <path id="SimHei-7b97" d="M 5175 3650 
Q 5150 3200 5150 2500 
Q 5150 1800 5175 1325 
L 4575 1325 
L 4575 875 
L 5250 875 
Q 5650 875 6150 900 
L 6150 475 
Q 5650 500 5250 500 
L 4575 500 
Q 4575 -75 4600 -625 
L 4050 -625 
Q 4075 -75 4075 500 
L 2650 500 
Q 2475 100 2125 -175 
Q 1775 -450 1075 -675 
Q 925 -425 700 -250 
Q 1250 -150 1600 37 
Q 1950 225 2125 500 
L 1225 500 
Q 800 500 300 475 
L 300 900 
Q 825 875 1225 875 
L 2200 875 
Q 2250 1075 2250 1325 
L 1250 1325 
Q 1275 1775 1275 2475 
Q 1275 3200 1250 3650 
L 5175 3650 
z
M 1825 5100 
Q 1625 4900 1475 4725 
L 2425 4725 
Q 2750 4725 3175 4750 
L 3175 4325 
Q 2750 4350 2200 4350 
Q 2250 4175 2350 3875 
Q 2075 3850 1825 3750 
Q 1750 4075 1675 4350 
L 1200 4350 
Q 1075 4125 775 3775 
Q 525 3925 250 4000 
Q 500 4225 762 4537 
Q 1025 4850 1275 5300 
Q 1500 5175 1825 5100 
z
M 4525 5100 
Q 4325 4950 4175 4725 
L 5225 4725 
Q 5500 4725 5950 4750 
L 5950 4325 
Q 5550 4350 4975 4350 
L 5175 3950 
Q 4925 3925 4650 3825 
Q 4575 4100 4500 4350 
L 3900 4350 
Q 3700 4025 3525 3775 
Q 3250 3950 3025 4000 
Q 3325 4300 3550 4612 
Q 3775 4925 3900 5275 
Q 4175 5175 4525 5100 
z
M 4650 1675 
L 4650 2000 
L 1775 2000 
L 1775 1675 
L 4650 1675 
z
M 4650 2350 
L 4650 2650 
L 1775 2650 
L 1775 2350 
L 4650 2350 
z
M 4650 3000 
L 4650 3300 
L 1775 3300 
L 1775 3000 
L 4650 3000 
z
M 4075 875 
L 4075 1325 
L 2725 1325 
Q 2725 1075 2700 875 
L 4075 875 
z
" transform="scale(0.015625)"/>
        <path id="SimHei-5904" d="M 2200 4925 
Q 2075 4800 2000 4587 
Q 1925 4375 1825 4050 
L 3425 4050 
Q 3375 3600 3325 3287 
Q 3275 2975 3187 2587 
Q 3100 2200 2950 1762 
Q 2800 1325 2625 1000 
Q 2800 800 3137 575 
Q 3475 350 3975 212 
Q 4475 75 5037 37 
Q 5600 0 6175 25 
Q 5925 -275 5875 -550 
Q 5100 -550 4512 -437 
Q 3925 -325 3587 -212 
Q 3250 -100 2912 137 
Q 2575 375 2325 650 
Q 1950 275 1600 0 
Q 1250 -275 600 -625 
Q 425 -350 225 -200 
Q 775 0 1287 350 
Q 1800 700 2025 1025 
Q 1725 1425 1550 1825 
Q 1375 2225 1225 2650 
Q 875 1975 700 1725 
Q 500 1925 250 2000 
Q 475 2250 725 2675 
Q 975 3100 1137 3500 
Q 1300 3900 1412 4350 
Q 1525 4800 1575 5150 
Q 1850 5000 2200 4925 
z
M 4500 5100 
Q 4475 4725 4475 4275 
L 4475 1775 
Q 4475 1250 4500 450 
L 3975 450 
Q 4000 1250 4000 1775 
L 4000 4275 
Q 4000 4725 3975 5100 
L 4500 5100 
z
M 1525 3200 
Q 1625 2775 1825 2312 
Q 2025 1850 2325 1475 
Q 2525 1900 2662 2437 
Q 2800 2975 2875 3625 
L 1700 3625 
Q 1575 3350 1525 3200 
z
M 4975 3675 
Q 5250 3350 5575 3000 
Q 5900 2650 6150 2350 
Q 5975 2250 5700 1975 
Q 5500 2275 5225 2637 
Q 4950 3000 4600 3375 
Q 4800 3500 4975 3675 
z
" transform="scale(0.015625)"/>
        <path id="SimHei-7406" d="M 5825 4850 
Q 5800 4525 5800 3425 
Q 5800 2350 5825 1875 
L 4450 1875 
L 4450 1125 
L 5200 1125 
Q 5650 1125 5900 1150 
L 5900 700 
Q 5625 725 5200 725 
L 4450 725 
L 4450 -125 
L 5350 -125 
Q 5825 -125 6150 -100 
L 6150 -550 
Q 5825 -525 5375 -525 
L 2950 -525 
Q 2550 -525 2250 -550 
L 2250 -100 
Q 2575 -125 2950 -125 
L 3975 -125 
L 3975 725 
L 3150 725 
Q 2825 725 2575 700 
L 2575 1150 
Q 2825 1125 3150 1125 
L 3975 1125 
L 3975 1875 
L 2625 1875 
Q 2650 2250 2650 3400 
Q 2650 4550 2625 4850 
L 5825 4850 
z
M 1750 4525 
Q 2025 4525 2350 4550 
L 2350 4075 
Q 2000 4100 1750 4100 
L 1525 4100 
L 1525 2750 
Q 1875 2750 2225 2775 
L 2225 2300 
Q 1875 2325 1525 2325 
L 1525 725 
Q 2000 900 2325 1050 
Q 2375 800 2425 625 
Q 1950 475 1362 237 
Q 775 0 450 -200 
Q 350 50 225 325 
Q 550 375 1075 600 
L 1075 2325 
Q 625 2325 300 2300 
L 300 2775 
Q 650 2750 1075 2750 
L 1075 4100 
L 775 4100 
Q 550 4100 225 4075 
L 225 4550 
Q 550 4525 775 4525 
L 1750 4525 
z
M 5325 2275 
L 5325 3175 
L 4450 3175 
L 4450 2275 
L 5325 2275 
z
M 5325 3550 
L 5325 4450 
L 4450 4450 
L 4450 3550 
L 5325 3550 
z
M 3975 2275 
L 3975 3175 
L 3125 3175 
L 3125 2275 
L 3975 2275 
z
M 3975 3550 
L 3975 4450 
L 3125 4450 
L 3125 3550 
L 3975 3550 
z
" transform="scale(0.015625)"/>
       </defs>
       <use xlink:href="#SimHei-6e05"/>
       <use xlink:href="#SimHei-7b97" transform="translate(100 0)"/>
       <use xlink:href="#SimHei-5904" transform="translate(200 0)"/>
       <use xlink:href="#SimHei-7406" transform="translate(300 0)"/>
      </g>
     </g>
    </g>
    <g id="ytick_7">
     <g id="line2d_21">
      <g>
       <use xlink:href="#m7913e2c82d" x="59.2" y="269.881919" style="stroke: #000000; stroke-width: 0.8"/>
      </g>
     </g>
     <g id="text_7">
      <!-- Raft同步 -->
      <g transform="translate(12.2 273.749106) scale(0.1 -0.1)">
       <defs>
        <path id="SimHei-52" d="M 3000 125 
L 2400 125 
L 1500 1975 
L 850 1975 
L 850 125 
L 275 125 
L 275 4400 
L 1525 4400 
Q 2125 4400 2500 4112 
Q 2875 3825 2875 3175 
Q 2875 2675 2625 2400 
Q 2375 2125 2050 2050 
L 3000 125 
z
M 2300 3175 
Q 2300 3525 2087 3725 
Q 1875 3925 1400 3925 
L 850 3925 
L 850 2450 
L 1550 2450 
Q 1850 2450 2075 2612 
Q 2300 2775 2300 3175 
z
" transform="scale(0.015625)"/>
        <path id="SimHei-61" d="M 2875 125 
L 2275 125 
Q 2225 175 2200 262 
Q 2175 350 2175 475 
Q 2000 275 1750 175 
Q 1500 75 1225 75 
Q 825 75 550 275 
Q 275 475 275 850 
Q 275 1225 525 1450 
Q 775 1675 1300 1750 
Q 1650 1800 1912 1875 
Q 2175 1950 2175 2075 
Q 2175 2225 2062 2375 
Q 1950 2525 1575 2525 
Q 1275 2525 1137 2412 
Q 1000 2300 950 2100 
L 400 2100 
Q 450 2500 762 2737 
Q 1075 2975 1575 2975 
Q 2125 2975 2400 2725 
Q 2675 2475 2675 2025 
L 2675 650 
Q 2675 500 2725 375 
Q 2775 250 2875 125 
z
M 2175 1050 
L 2175 1550 
Q 2025 1500 1887 1462 
Q 1750 1425 1425 1375 
Q 1050 1325 937 1200 
Q 825 1075 825 900 
Q 825 750 937 637 
Q 1050 525 1275 525 
Q 1500 525 1762 650 
Q 2025 775 2175 1050 
z
" transform="scale(0.015625)"/>
        <path id="SimHei-66" d="M 2850 3825 
Q 2725 3900 2550 3950 
Q 2375 4000 2100 4000 
Q 1825 4000 1725 3862 
Q 1625 3725 1625 3525 
L 1625 2925 
L 2650 2925 
L 2650 2525 
L 1625 2525 
L 1625 125 
L 1125 125 
L 1125 2525 
L 275 2525 
L 275 2925 
L 1125 2925 
L 1125 3500 
Q 1125 3950 1400 4200 
Q 1675 4450 2125 4450 
Q 2400 4450 2562 4412 
Q 2725 4375 2850 4325 
L 2850 3825 
z
" transform="scale(0.015625)"/>
        <path id="SimHei-74" d="M 2750 200 
Q 2625 150 2462 112 
Q 2300 75 2025 75 
Q 1575 75 1300 325 
Q 1025 575 1025 1025 
L 1025 2525 
L 175 2525 
L 175 2925 
L 1025 2925 
L 1025 3900 
L 1525 3900 
L 1525 2925 
L 2550 2925 
L 2550 2525 
L 1525 2525 
L 1525 1000 
Q 1525 800 1625 662 
Q 1725 525 2000 525 
Q 2275 525 2450 575 
Q 2625 625 2750 700 
L 2750 200 
z
" transform="scale(0.015625)"/>
        <path id="SimHei-540c" d="M 5825 4925 
Q 5775 4550 5775 3975 
L 5775 -50 
Q 5775 -400 5525 -487 
Q 5275 -575 4725 -625 
Q 4725 -400 4525 -50 
Q 4925 -50 5100 -12 
Q 5275 25 5275 200 
L 5275 4450 
L 1150 4450 
L 1150 -600 
L 575 -600 
Q 600 -250 625 200 
L 625 3975 
Q 625 4575 600 4925 
L 5825 4925 
z
M 4375 2550 
Q 4325 2275 4325 1700 
Q 4325 1150 4375 725 
L 2025 725 
Q 2050 1175 2050 1750 
Q 2050 2325 2025 2550 
L 4375 2550 
z
M 4100 3750 
Q 4600 3750 4825 3775 
L 4825 3275 
Q 4575 3300 4075 3300 
L 2450 3300 
Q 1850 3300 1600 3275 
L 1600 3775 
Q 1875 3750 2475 3750 
L 4100 3750 
z
M 3875 1150 
L 3875 2150 
L 2525 2150 
L 2525 1150 
L 3875 1150 
z
" transform="scale(0.015625)"/>
        <path id="SimHei-6b65" d="M 4800 4250 
Q 5150 4250 5550 4275 
L 5550 3825 
Q 5150 3850 4800 3850 
L 3700 3850 
L 3700 3000 
L 5125 3000 
Q 5675 3000 6100 3025 
L 6100 2550 
Q 5675 2575 5125 2575 
L 1475 2575 
Q 1050 2575 475 2525 
L 475 3025 
Q 1050 3000 1475 3000 
L 1725 3000 
L 1725 3775 
Q 1725 4225 1700 4500 
L 2225 4500 
Q 2200 4175 2200 3775 
L 2200 3000 
L 3225 3000 
Q 3225 4750 3200 5100 
L 3725 5100 
Q 3700 4750 3700 4250 
L 4800 4250 
z
M 3725 2400 
Q 3700 1975 3700 1600 
L 3700 450 
Q 4250 750 4725 1225 
Q 5200 1700 5400 2050 
Q 5650 1825 5900 1700 
Q 5675 1475 5362 1150 
Q 5050 825 4537 437 
Q 4025 50 3212 -225 
Q 2400 -500 800 -650 
Q 725 -400 500 -150 
Q 1275 -150 2100 -25 
Q 2925 100 3225 275 
L 3225 1600 
Q 3225 1975 3200 2400 
L 3725 2400 
z
M 2600 1875 
Q 2275 1600 1975 1275 
Q 1675 950 1075 400 
Q 875 600 700 725 
Q 1175 1075 1562 1512 
Q 1950 1950 2125 2200 
Q 2325 2025 2600 1875 
z
" transform="scale(0.015625)"/>
       </defs>
       <use xlink:href="#SimHei-52"/>
       <use xlink:href="#SimHei-61" transform="translate(50 0)"/>
       <use xlink:href="#SimHei-66" transform="translate(100 0)"/>
       <use xlink:href="#SimHei-74" transform="translate(150 0)"/>
       <use xlink:href="#SimHei-540c" transform="translate(200 0)"/>
       <use xlink:href="#SimHei-6b65" transform="translate(300 0)"/>
      </g>
     </g>
    </g>
   </g>
   <g id="line2d_22">
    <path d="M 924.385185 287.989375 
L 924.385185 79.3225 
" clip-path="url(#pa313492696)" style="fill: none; stroke-dasharray: 7.4,3.2; stroke-dashoffset: 0; stroke: #d62728; stroke-opacity: 0.7; stroke-width: 2"/>
   </g>
   <g id="patch_10">
    <path d="M 59.2 287.989375 
L 59.2 79.3225 
" style="fill: none; stroke: #000000; stroke-width: 0.8; stroke-linejoin: miter; stroke-linecap: square"/>
   </g>
   <g id="patch_11">
    <path d="M 993.6 287.989375 
L 993.6 79.3225 
" style="fill: none; stroke: #000000; stroke-width: 0.8; stroke-linejoin: miter; stroke-linecap: square"/>
   </g>
   <g id="patch_12">
    <path d="M 59.2 287.989375 
L 993.6 287.989375 
" style="fill: none; stroke: #000000; stroke-width: 0.8; stroke-linejoin: miter; stroke-linecap: square"/>
   </g>
   <g id="patch_13">
    <path d="M 59.2 79.3225 
L 993.6 79.3225 
" style="fill: none; stroke: #000000; stroke-width: 0.8; stroke-linejoin: miter; stroke-linecap: square"/>
   </g>
   <g id="text_8">
    <!-- 0.5 -->
    <g style="fill: #666666" transform="translate(71.45041 99.679956) scale(0.08 -0.08)">
     <defs>
      <path id="SimHei-30" d="M 225 2537 
Q 250 3200 412 3587 
Q 575 3975 875 4225 
Q 1175 4475 1612 4475 
Q 2050 4475 2375 4112 
Q 2700 3750 2800 3200 
Q 2900 2650 2862 1937 
Q 2825 1225 2612 775 
Q 2400 325 1975 150 
Q 1550 -25 1125 187 
Q 700 400 525 750 
Q 350 1100 275 1487 
Q 200 1875 225 2537 
z
M 750 2687 
Q 675 2000 800 1462 
Q 925 925 1212 700 
Q 1500 475 1800 612 
Q 2100 750 2237 1162 
Q 2375 1575 2375 2062 
Q 2375 2550 2337 2950 
Q 2300 3350 2112 3675 
Q 1925 4000 1612 4012 
Q 1300 4025 1062 3700 
Q 825 3375 750 2687 
z
" transform="scale(0.015625)"/>
      <path id="SimHei-2e" d="M 1075 125 
L 500 125 
L 500 675 
L 1075 675 
L 1075 125 
z
" transform="scale(0.015625)"/>
      <path id="SimHei-35" d="M 550 1325 
Q 725 650 1150 575 
Q 1575 500 1837 662 
Q 2100 825 2212 1087 
Q 2325 1350 2312 1675 
Q 2300 2000 2137 2225 
Q 1975 2450 1725 2525 
Q 1475 2600 1162 2525 
Q 850 2450 650 2175 
L 225 2225 
Q 275 2375 700 4375 
L 2675 4375 
L 2675 3925 
L 1075 3925 
Q 950 3250 825 2850 
Q 1200 3025 1525 3012 
Q 1850 3000 2150 2862 
Q 2450 2725 2587 2487 
Q 2725 2250 2787 2012 
Q 2850 1775 2837 1500 
Q 2825 1225 2725 937 
Q 2625 650 2425 462 
Q 2225 275 1937 162 
Q 1650 50 1275 75 
Q 900 100 562 350 
Q 225 600 100 1200 
L 550 1325 
z
" transform="scale(0.015625)"/>
     </defs>
     <use xlink:href="#SimHei-30"/>
     <use xlink:href="#SimHei-2e" transform="translate(50 0)"/>
     <use xlink:href="#SimHei-35" transform="translate(100 0)"/>
    </g>
   </g>
   <g id="text_9">
    <!-- 0.5 -->
    <g style="fill: #666666" transform="translate(79.106916 128.42195) scale(0.08 -0.08)">
     <use xlink:href="#SimHei-30"/>
     <use xlink:href="#SimHei-2e" transform="translate(50 0)"/>
     <use xlink:href="#SimHei-35" transform="translate(100 0)"/>
    </g>
   </g>
   <g id="text_10">
    <!-- 9.0μs -->
    <g style="fill: #ffffff" transform="translate(128.421567 157.745975) scale(0.1 -0.1)">
     <defs>
      <path id="SimHei-39" d="M 800 75 
Q 1350 1000 1700 1750 
Q 1075 1650 662 1912 
Q 250 2175 162 2625 
Q 75 3075 175 3437 
Q 275 3800 487 4037 
Q 700 4275 1000 4375 
Q 1300 4475 1537 4475 
Q 1775 4475 2025 4375 
Q 2275 4275 2475 4075 
Q 2675 3875 2750 3662 
Q 2825 3450 2825 3112 
Q 2825 2775 2575 2250 
Q 2325 1725 1350 75 
L 800 75 
z
M 662 2875 
Q 700 2550 937 2337 
Q 1175 2125 1450 2150 
Q 1725 2175 1887 2300 
Q 2050 2425 2200 2725 
Q 2300 3100 2250 3362 
Q 2200 3625 1987 3800 
Q 1775 3975 1525 3975 
Q 1375 4000 1137 3900 
Q 900 3800 762 3500 
Q 625 3200 662 2875 
z
" transform="scale(0.015625)"/>
      <path id="SimHei-3bc" d="M 2025 3200 
L 2450 3200 
L 2450 1050 
Q 2625 550 3100 500 
L 3300 500 
Q 3875 575 3800 1750 
L 3800 3200 
L 4200 3200 
L 4200 900 
Q 4225 600 4450 575 
L 4650 575 
L 4650 175 
L 4200 200 
Q 4000 275 3950 450 
L 3925 500 
Q 3575 75 3075 150 
Q 2750 175 2450 450 
L 2450 -750 
L 2025 -750 
L 2025 3200 
z
" transform="scale(0.015625)"/>
      <path id="SimHei-73" d="M 2750 900 
Q 2750 500 2437 287 
Q 2125 75 1650 75 
Q 1050 75 725 312 
Q 400 550 400 1000 
L 900 1000 
Q 900 700 1112 600 
Q 1325 500 1625 500 
Q 1925 500 2075 612 
Q 2225 725 2225 900 
Q 2225 1025 2100 1150 
Q 1975 1275 1475 1350 
Q 900 1425 687 1637 
Q 475 1850 475 2200 
Q 475 2500 762 2737 
Q 1050 2975 1600 2975 
Q 2100 2975 2387 2750 
Q 2675 2525 2675 2150 
L 2175 2150 
Q 2175 2375 2012 2462 
Q 1850 2550 1600 2550 
Q 1275 2550 1137 2437 
Q 1000 2325 1000 2175 
Q 1000 2000 1125 1900 
Q 1250 1800 1650 1750 
Q 2300 1650 2525 1437 
Q 2750 1225 2750 900 
z
" transform="scale(0.015625)"/>
     </defs>
     <use xlink:href="#SimHei-39"/>
     <use xlink:href="#SimHei-2e" transform="translate(50 0)"/>
     <use xlink:href="#SimHei-30" transform="translate(100 0)"/>
     <use xlink:href="#SimHei-3bc" transform="translate(150 0)"/>
     <use xlink:href="#SimHei-73" transform="translate(250 0)"/>
    </g>
   </g>
   <g id="text_11">
    <!-- 1.0 -->
    <g style="fill: #ffffff" transform="translate(213.236627 186.187188) scale(0.09 -0.09)">
     <defs>
      <path id="SimHei-31" d="M 1400 3600 
Q 1075 3275 575 2975 
L 575 3450 
Q 1200 3875 1600 4450 
L 1900 4450 
L 1900 150 
L 1400 150 
L 1400 3600 
z
" transform="scale(0.015625)"/>
     </defs>
     <use xlink:href="#SimHei-31"/>
     <use xlink:href="#SimHei-2e" transform="translate(50 0)"/>
     <use xlink:href="#SimHei-30" transform="translate(100 0)"/>
    </g>
   </g>
   <g id="text_12">
    <!-- 9.0μs -->
    <g style="fill: #ffffff" transform="translate(281.551688 215.229963) scale(0.1 -0.1)">
     <use xlink:href="#SimHei-39"/>
     <use xlink:href="#SimHei-2e" transform="translate(50 0)"/>
     <use xlink:href="#SimHei-30" transform="translate(100 0)"/>
     <use xlink:href="#SimHei-3bc" transform="translate(150 0)"/>
     <use xlink:href="#SimHei-73" transform="translate(250 0)"/>
    </g>
   </g>
   <g id="text_13">
    <!-- 0.5 -->
    <g style="fill: #666666" transform="translate(377.710652 243.389925) scale(0.08 -0.08)">
     <use xlink:href="#SimHei-30"/>
     <use xlink:href="#SimHei-2e" transform="translate(50 0)"/>
     <use xlink:href="#SimHei-35" transform="translate(100 0)"/>
    </g>
   </g>
   <g id="text_14">
    <!-- 36.0μs -->
    <g style="fill: #ffffff" transform="translate(631.250967 272.733481) scale(0.1 -0.1)">
     <defs>
      <path id="SimHei-33" d="M 250 1225 
L 700 1300 
Q 800 975 1025 762 
Q 1250 550 1587 562 
Q 1925 575 2125 837 
Q 2325 1100 2300 1437 
Q 2275 1775 2037 1962 
Q 1800 2150 1275 2225 
L 1275 2550 
Q 1800 2600 2037 2825 
Q 2275 3050 2250 3412 
Q 2225 3775 1925 3937 
Q 1625 4100 1287 3975 
Q 950 3850 750 3275 
L 300 3350 
Q 450 3800 712 4100 
Q 975 4400 1425 4450 
Q 1875 4500 2212 4337 
Q 2550 4175 2687 3837 
Q 2825 3500 2725 3100 
Q 2625 2700 2150 2400 
Q 2500 2250 2687 1950 
Q 2875 1650 2812 1162 
Q 2750 675 2375 375 
Q 2000 75 1525 87 
Q 1050 100 700 387 
Q 350 675 250 1225 
z
" transform="scale(0.015625)"/>
      <path id="SimHei-36" d="M 250 1612 
Q 275 1975 387 2225 
Q 500 2475 725 2850 
L 1750 4450 
L 2325 4450 
L 1275 2800 
Q 1950 2975 2350 2750 
Q 2750 2525 2887 2237 
Q 3025 1950 3037 1612 
Q 3050 1275 2937 950 
Q 2825 625 2537 362 
Q 2250 100 1737 75 
Q 1225 50 862 262 
Q 500 475 362 862 
Q 225 1250 250 1612 
z
M 1025 787 
Q 1250 550 1625 525 
Q 2000 500 2250 775 
Q 2500 1050 2500 1575 
Q 2500 2100 2187 2300 
Q 1875 2500 1487 2450 
Q 1100 2400 925 2075 
Q 750 1750 775 1387 
Q 800 1025 1025 787 
z
" transform="scale(0.015625)"/>
     </defs>
     <use xlink:href="#SimHei-33"/>
     <use xlink:href="#SimHei-36" transform="translate(50 0)"/>
     <use xlink:href="#SimHei-2e" transform="translate(100 0)"/>
     <use xlink:href="#SimHei-30" transform="translate(150 0)"/>
     <use xlink:href="#SimHei-3bc" transform="translate(200 0)"/>
     <use xlink:href="#SimHei-73" transform="translate(300 0)"/>
    </g>
   </g>
   <g id="text_15">
    <!-- 56.5μs -->
    <g style="fill: #d62728" transform="translate(932.041691 186.468438) scale(0.1 -0.1)">
     <use xlink:href="#SimHei-35"/>
     <use xlink:href="#SimHei-36" transform="translate(50 0)"/>
     <use xlink:href="#SimHei-2e" transform="translate(100 0)"/>
     <use xlink:href="#SimHei-35" transform="translate(150 0)"/>
     <use xlink:href="#SimHei-3bc" transform="translate(200 0)"/>
     <use xlink:href="#SimHei-73" transform="translate(300 0)"/>
    </g>
   </g>
   <g id="text_16">
    <!-- Aeron DPDK  —  总计: 56.5μs -->
    <g transform="translate(59.2 69.3225) scale(0.12 -0.12)">
     <defs>
      <path id="SimHei-41" d="M 3075 125 
L 2475 125 
L 2125 1450 
L 1025 1450 
L 675 125 
L 75 125 
L 1325 4450 
L 1825 4450 
L 3075 125 
z
M 2000 1925 
L 1600 3450 
L 1550 3450 
L 1150 1925 
L 2000 1925 
z
" transform="scale(0.015625)"/>
      <path id="SimHei-72" d="M 2500 2425 
Q 2025 2500 1700 2287 
Q 1375 2075 1150 1550 
L 1150 125 
L 650 125 
L 650 2925 
L 1150 2925 
L 1150 2200 
Q 1375 2600 1712 2787 
Q 2050 2975 2500 2975 
L 2500 2425 
z
" transform="scale(0.015625)"/>
      <path id="SimHei-20" transform="scale(0.015625)"/>
      <path id="SimHei-44" d="M 2925 2250 
Q 2925 1100 2437 612 
Q 1950 125 1125 125 
L 275 125 
L 275 4400 
L 1125 4400 
Q 2050 4400 2487 3900 
Q 2925 3400 2925 2250 
z
M 2325 2250 
Q 2325 3175 2025 3550 
Q 1725 3925 1125 3925 
L 850 3925 
L 850 600 
L 1125 600 
Q 1725 600 2025 962 
Q 2325 1325 2325 2250 
z
" transform="scale(0.015625)"/>
      <path id="SimHei-50" d="M 2950 3100 
Q 2950 2500 2600 2150 
Q 2250 1800 1625 1800 
L 900 1800 
L 900 125 
L 325 125 
L 325 4400 
L 1625 4400 
Q 2250 4400 2600 4050 
Q 2950 3700 2950 3100 
z
M 2375 3100 
Q 2375 3575 2150 3750 
Q 1925 3925 1475 3925 
L 900 3925 
L 900 2275 
L 1475 2275 
Q 1925 2275 2150 2450 
Q 2375 2625 2375 3100 
z
" transform="scale(0.015625)"/>
      <path id="SimHei-4b" d="M 3050 125 
L 2400 125 
L 1250 2250 
L 850 1725 
L 850 125 
L 275 125 
L 275 4400 
L 850 4400 
L 850 2550 
L 2275 4400 
L 2950 4400 
L 1625 2725 
L 3050 125 
z
" transform="scale(0.015625)"/>
      <path id="SimHei-2014" d="M 6375 2500 
L 6375 2125 
L 0 2125 
L 0 2500 
L 6375 2500 
z
" transform="scale(0.015625)"/>
      <path id="SimHei-603b" d="M 4550 4850 
Q 4375 4650 4025 3900 
L 5100 3900 
Q 5075 3425 5075 2950 
Q 5075 2500 5100 2025 
L 1175 2025 
Q 1200 2550 1200 3000 
Q 1200 3475 1175 3900 
L 2175 3900 
Q 1900 4350 1525 4750 
Q 1700 4850 1875 5050 
Q 2350 4550 2575 4200 
Q 2400 4075 2250 3900 
L 3550 3900 
Q 3875 4700 3950 5100 
Q 4300 4925 4550 4850 
z
M 4600 2450 
L 4600 3525 
L 1650 3525 
L 1650 2450 
L 4600 2450 
z
M 2275 1450 
Q 2250 1050 2250 675 
Q 2250 300 2262 112 
Q 2275 -75 2675 -75 
L 4000 -75 
Q 4325 -75 4400 550 
Q 4650 400 4925 325 
Q 4775 -200 4562 -337 
Q 4350 -475 4000 -450 
L 2325 -450 
Q 1850 -450 1825 -175 
Q 1800 100 1800 525 
Q 1800 975 1775 1450 
L 2275 1450 
z
M 1350 1325 
Q 1050 300 825 -250 
Q 625 -150 375 -50 
Q 675 525 900 1500 
Q 1100 1425 1350 1325 
z
M 4950 1575 
Q 5700 825 6000 450 
Q 5825 275 5625 100 
Q 5375 450 4600 1275 
Q 4750 1375 4950 1575 
z
M 3350 575 
Q 2975 1175 2675 1500 
Q 2825 1650 3000 1800 
Q 3225 1575 3750 875 
Q 3525 775 3350 575 
z
" transform="scale(0.015625)"/>
      <path id="SimHei-8ba1" d="M 3925 3100 
L 3925 4350 
Q 3925 4850 3900 5125 
L 4425 5125 
Q 4400 4800 4400 4550 
L 4400 3100 
L 5425 3100 
Q 5725 3100 6075 3125 
L 6075 2650 
Q 5700 2675 5450 2675 
L 4400 2675 
L 4400 175 
Q 4400 -125 4425 -550 
L 3900 -550 
Q 3925 -125 3925 150 
L 3925 2675 
L 2950 2675 
Q 2575 2675 2200 2650 
L 2200 3125 
Q 2575 3100 2900 3100 
L 3925 3100 
z
M 1775 3150 
Q 1750 2675 1750 2150 
L 1750 625 
Q 2175 1050 2425 1400 
Q 2575 1200 2775 1000 
L 2075 300 
Q 1750 -25 1450 -350 
Q 1275 -125 1125 50 
Q 1300 250 1275 650 
L 1275 2725 
Q 600 2725 275 2700 
L 275 3175 
Q 675 3150 825 3150 
L 1775 3150 
z
M 1150 5050 
Q 1475 4725 2175 4000 
Q 1950 3800 1750 3625 
Q 1425 4100 775 4750 
Q 950 4875 1150 5050 
z
" transform="scale(0.015625)"/>
      <path id="SimHei-3a" d="M 1825 2425 
L 1250 2425 
L 1250 2975 
L 1825 2975 
L 1825 2425 
z
M 1825 125 
L 1250 125 
L 1250 675 
L 1825 675 
L 1825 125 
z
" transform="scale(0.015625)"/>
     </defs>
     <use xlink:href="#SimHei-41"/>
     <use xlink:href="#SimHei-65" transform="translate(50 0)"/>
     <use xlink:href="#SimHei-72" transform="translate(100 0)"/>
     <use xlink:href="#SimHei-6f" transform="translate(150 0)"/>
     <use xlink:href="#SimHei-6e" transform="translate(200 0)"/>
     <use xlink:href="#SimHei-20" transform="translate(250 0)"/>
     <use xlink:href="#SimHei-44" transform="translate(300 0)"/>
     <use xlink:href="#SimHei-50" transform="translate(350 0)"/>
     <use xlink:href="#SimHei-44" transform="translate(400 0)"/>
     <use xlink:href="#SimHei-4b" transform="translate(450 0)"/>
     <use xlink:href="#SimHei-20" transform="translate(500 0)"/>
     <use xlink:href="#SimHei-20" transform="translate(550 0)"/>
     <use xlink:href="#SimHei-2014" transform="translate(600 0)"/>
     <use xlink:href="#SimHei-20" transform="translate(700 0)"/>
     <use xlink:href="#SimHei-20" transform="translate(750 0)"/>
     <use xlink:href="#SimHei-603b" transform="translate(800 0)"/>
     <use xlink:href="#SimHei-8ba1" transform="translate(900 0)"/>
     <use xlink:href="#SimHei-3a" transform="translate(1000 0)"/>
     <use xlink:href="#SimHei-20" transform="translate(1050 0)"/>
     <use xlink:href="#SimHei-35" transform="translate(1100 0)"/>
     <use xlink:href="#SimHei-36" transform="translate(1150 0)"/>
     <use xlink:href="#SimHei-2e" transform="translate(1200 0)"/>
     <use xlink:href="#SimHei-35" transform="translate(1250 0)"/>
     <use xlink:href="#SimHei-3bc" transform="translate(1300 0)"/>
     <use xlink:href="#SimHei-73" transform="translate(1400 0)"/>
    </g>
   </g>
   <g id="legend_1">
    <g id="patch_14">
     <path d="M 684.9 99.530313 
L 987.3 99.530313 
Q 989.1 99.530313 989.1 97.730313 
L 989.1 85.6225 
Q 989.1 83.8225 987.3 83.8225 
L 684.9 83.8225 
Q 683.1 83.8225 683.1 85.6225 
L 683.1 97.730313 
Q 683.1 99.530313 684.9 99.530313 
z
" style="fill: #ffffff; opacity: 0.95; stroke: #cccccc; stroke-linejoin: miter"/>
    </g>
    <g id="patch_15">
     <path d="M 686.7 94.805313 
L 704.7 94.805313 
L 704.7 88.505313 
L 686.7 88.505313 
z
" style="fill: #66c2a5; stroke: #ffffff; stroke-linejoin: miter"/>
    </g>
    <g id="text_17">
     <!-- 本地处理 -->
     <g transform="translate(711.9 94.805313) scale(0.09 -0.09)">
      <defs>
       <path id="SimHei-672c" d="M 2950 3925 
L 2950 4425 
Q 2950 4825 2925 5175 
L 3475 5175 
Q 3450 4900 3450 4450 
L 3450 3925 
L 4850 3925 
Q 5275 3925 5850 3950 
L 5850 3475 
Q 5300 3500 4875 3500 
L 3850 3500 
Q 4200 2350 4862 1687 
Q 5525 1025 6075 800 
Q 5850 625 5650 325 
Q 4800 900 4262 1637 
Q 3725 2375 3450 3350 
L 3450 1000 
L 3775 1000 
Q 4175 1000 4600 1025 
L 4600 550 
Q 4175 575 3750 575 
L 3450 575 
Q 3450 0 3475 -600 
L 2925 -600 
Q 2950 0 2950 575 
L 2625 575 
Q 2225 575 1825 550 
L 1825 1025 
Q 2225 1000 2625 1000 
L 2950 1000 
L 2950 3300 
Q 2550 2275 2062 1575 
Q 1575 875 750 175 
Q 550 450 275 575 
Q 1100 1075 1650 1825 
Q 2200 2575 2525 3500 
L 1425 3500 
Q 1025 3500 575 3475 
L 575 3950 
Q 1025 3925 1400 3925 
L 2950 3925 
z
" transform="scale(0.015625)"/>
       <path id="SimHei-5730" d="M 2300 2275 
Q 2175 2575 2075 2750 
Q 2350 2800 2750 2950 
L 2750 3525 
Q 2750 3975 2725 4550 
L 3225 4550 
Q 3200 4025 3200 3550 
L 3200 3100 
L 3950 3375 
L 3950 4375 
Q 3950 4800 3925 5225 
L 4450 5225 
Q 4425 4925 4425 4350 
L 4425 3525 
Q 4800 3625 5725 3950 
Q 5700 3650 5700 3075 
L 5700 2100 
Q 5725 1450 5462 1275 
Q 5200 1100 4800 1000 
Q 4725 1250 4575 1525 
Q 5025 1575 5137 1662 
Q 5250 1750 5225 2225 
L 5225 3300 
Q 4800 3175 4425 3050 
L 4425 1375 
Q 4425 925 4450 625 
L 3925 625 
Q 3950 1075 3950 1375 
L 3950 2900 
L 3200 2625 
L 3200 550 
Q 3200 50 3550 50 
L 5150 50 
Q 5400 50 5475 212 
Q 5550 375 5625 775 
Q 5875 600 6175 550 
Q 6025 0 5850 -187 
Q 5675 -375 5300 -375 
L 3325 -375 
Q 2775 -375 2750 300 
L 2750 2475 
Q 2450 2375 2300 2275 
z
M 1625 925 
Q 1975 1025 2425 1225 
Q 2400 950 2400 725 
Q 1975 575 1437 400 
Q 900 225 525 25 
Q 450 275 275 550 
Q 650 650 1125 800 
L 1125 3000 
Q 650 3000 350 2975 
L 350 3450 
Q 650 3425 1125 3425 
L 1125 4225 
Q 1125 4650 1100 5075 
L 1650 5075 
Q 1625 4750 1625 4225 
L 1625 3425 
Q 2075 3425 2350 3450 
L 2350 2975 
Q 2075 3000 1625 3000 
L 1625 925 
z
" transform="scale(0.015625)"/>
      </defs>
      <use xlink:href="#SimHei-672c"/>
      <use xlink:href="#SimHei-5730" transform="translate(100 0)"/>
      <use xlink:href="#SimHei-5904" transform="translate(200 0)"/>
      <use xlink:href="#SimHei-7406" transform="translate(300 0)"/>
     </g>
    </g>
    <g id="patch_16">
     <path d="M 765.9 94.805313 
L 783.9 94.805313 
L 783.9 88.505313 
L 765.9 88.505313 
z
" style="fill: #fc8d62; stroke: #ffffff; stroke-linejoin: miter"/>
    </g>
    <g id="text_18">
     <!-- 网络传输 -->
     <g transform="translate(791.1 94.805313) scale(0.09 -0.09)">
      <defs>
       <path id="SimHei-4f20" d="M 5500 1975 
Q 5025 925 4700 250 
Q 4975 100 5450 -200 
Q 5300 -375 5125 -675 
Q 4700 -375 4012 12 
Q 3325 400 3050 525 
Q 3175 750 3275 950 
Q 3600 800 4275 475 
Q 4525 975 4750 1550 
L 2800 1550 
Q 2950 2000 3125 2650 
L 2575 2650 
Q 2200 2650 1925 2625 
L 1925 3075 
Q 2250 3050 2600 3050 
L 3200 3050 
Q 3300 3525 3350 3825 
L 2975 3825 
Q 2525 3825 2250 3800 
L 2250 4250 
Q 2550 4225 2950 4225 
L 3425 4225 
Q 3525 4950 3525 5225 
Q 3850 5150 4100 5125 
Q 4025 5000 3875 4225 
L 4950 4225 
Q 5350 4225 5700 4250 
L 5700 3800 
Q 5375 3825 4925 3825 
L 3825 3825 
Q 3775 3550 3675 3050 
L 5250 3050 
Q 5750 3050 6025 3075 
L 6025 2625 
Q 5725 2650 5250 2650 
L 3600 2650 
Q 3500 2250 3425 1975 
L 5500 1975 
z
M 2225 4875 
Q 2025 4675 1650 3750 
L 1650 550 
Q 1650 -25 1675 -525 
L 1125 -525 
Q 1175 -125 1175 525 
L 1175 3000 
Q 800 2400 550 2050 
Q 450 2250 200 2450 
Q 500 2800 925 3525 
Q 1350 4250 1625 5175 
Q 1850 5050 2225 4875 
z
" transform="scale(0.015625)"/>
       <path id="SimHei-8f93" d="M 3225 3650 
Q 2725 3100 2550 2950 
L 4100 2950 
Q 4075 2675 4075 2275 
L 4075 -100 
Q 4100 -325 3962 -425 
Q 3825 -525 3475 -600 
Q 3400 -350 3225 -100 
Q 3650 -100 3650 25 
L 3650 675 
L 2975 675 
L 2975 -575 
L 2525 -575 
Q 2550 -125 2550 325 
L 2550 2075 
Q 2550 2500 2525 2925 
L 2375 2800 
Q 2200 3000 1950 3100 
Q 2575 3525 3025 4087 
Q 3475 4650 3775 5300 
Q 4075 5150 4325 5100 
L 4225 4975 
Q 4700 4325 5225 3975 
Q 5750 3625 6200 3475 
Q 5975 3275 5825 3025 
Q 5275 3300 4875 3650 
L 4875 3350 
L 3225 3350 
L 3225 3650 
z
M 2225 825 
Q 1975 775 1725 675 
Q 1725 -100 1750 -650 
L 1275 -650 
Q 1300 -100 1300 575 
Q 725 425 475 325 
Q 400 575 250 825 
Q 650 875 1300 1025 
L 1300 1975 
Q 700 1925 400 1800 
L 225 2225 
Q 425 2350 600 2850 
Q 775 3350 875 3825 
Q 625 3825 350 3800 
L 350 4250 
Q 675 4225 950 4225 
Q 1050 4700 1075 5175 
Q 1400 5075 1675 5025 
Q 1525 4850 1400 4225 
Q 1925 4225 2300 4250 
L 2300 3800 
Q 1850 3825 1325 3825 
Q 1075 2900 825 2325 
L 1300 2375 
Q 1300 2700 1275 3125 
L 1750 3125 
Q 1725 2900 1725 2425 
L 2150 2475 
L 2150 2075 
L 1725 2025 
L 1725 1125 
L 2225 1250 
L 2225 825 
z
M 5775 2925 
Q 5750 2525 5750 2150 
L 5750 -100 
Q 5750 -375 5625 -475 
Q 5500 -575 5000 -675 
Q 4950 -450 4750 -175 
Q 5300 -200 5325 0 
L 5325 2100 
Q 5325 2500 5300 2925 
L 5775 2925 
z
M 4975 2700 
Q 4950 2400 4950 2000 
L 4950 900 
Q 4950 425 4975 125 
L 4475 125 
Q 4500 500 4500 875 
L 4500 2000 
Q 4500 2350 4475 2700 
L 4975 2700 
z
M 4750 3750 
Q 4450 4025 3975 4675 
Q 3575 4075 3300 3750 
L 4750 3750 
z
M 3650 2000 
L 3650 2575 
L 2975 2575 
L 2975 2000 
L 3650 2000 
z
M 3650 1075 
L 3650 1625 
L 2975 1625 
L 2975 1075 
L 3650 1075 
z
" transform="scale(0.015625)"/>
      </defs>
      <use xlink:href="#SimHei-7f51"/>
      <use xlink:href="#SimHei-7edc" transform="translate(100 0)"/>
      <use xlink:href="#SimHei-4f20" transform="translate(200 0)"/>
      <use xlink:href="#SimHei-8f93" transform="translate(300 0)"/>
     </g>
    </g>
    <g id="patch_17">
     <path d="M 845.1 94.805313 
L 863.1 94.805313 
L 863.1 88.505313 
L 845.1 88.505313 
z
" style="fill: #8da0cb; stroke: #ffffff; stroke-linejoin: miter"/>
    </g>
    <g id="text_19">
     <!-- 撮合执行 -->
     <g transform="translate(870.3 94.805313) scale(0.09 -0.09)">
      <use xlink:href="#SimHei-64ae"/>
      <use xlink:href="#SimHei-5408" transform="translate(100 0)"/>
      <use xlink:href="#SimHei-6267" transform="translate(200 0)"/>
      <use xlink:href="#SimHei-884c" transform="translate(300 0)"/>
     </g>
    </g>
    <g id="patch_18">
     <path d="M 924.3 94.805313 
L 942.3 94.805313 
L 942.3 88.505313 
L 924.3 88.505313 
z
" style="fill: #e78ac3; stroke: #ffffff; stroke-linejoin: miter"/>
    </g>
    <g id="text_20">
     <!-- Raft同步 -->
     <g transform="translate(949.5 94.805313) scale(0.09 -0.09)">
      <use xlink:href="#SimHei-52"/>
      <use xlink:href="#SimHei-61" transform="translate(50 0)"/>
      <use xlink:href="#SimHei-66" transform="translate(100 0)"/>
      <use xlink:href="#SimHei-74" transform="translate(150 0)"/>
      <use xlink:href="#SimHei-540c" transform="translate(200 0)"/>
      <use xlink:href="#SimHei-6b65" transform="translate(300 0)"/>
     </g>
    </g>
   </g>
  </g>
  <g id="axes_2">
   <g id="patch_19">
    <path d="M 59.2 530.69875 
L 993.6 530.69875 
L 993.6 322.031875 
L 59.2 322.031875 
z
" style="fill: #ffffff"/>
   </g>
   <g id="patch_20">
    <path d="M 59.2 331.516733 
L 66.856506 331.516733 
L 66.856506 348.761929 
L 59.2 348.761929 
z
" clip-path="url(#pb5d724b876)" style="fill: #66c2a5; stroke: #ffffff; stroke-width: 0.5; stroke-linejoin: miter"/>
   </g>
   <g id="patch_21">
    <path d="M 66.856506 360.258727 
L 74.513012 360.258727 
L 74.513012 377.503923 
L 66.856506 377.503923 
z
" clip-path="url(#pb5d724b876)" style="fill: #66c2a5; stroke: #ffffff; stroke-width: 0.5; stroke-linejoin: miter"/>
   </g>
   <g id="patch_22">
    <path d="M 74.513012 389.000721 
L 97.48253 389.000721 
L 97.48253 406.245917 
L 74.513012 406.245917 
z
" clip-path="url(#pb5d724b876)" style="fill: #fc8d62; stroke: #ffffff; stroke-width: 0.5; stroke-linejoin: miter"/>
   </g>
   <g id="patch_23">
    <path d="M 97.48253 417.742714 
L 112.795542 417.742714 
L 112.795542 434.987911 
L 97.48253 434.987911 
z
" clip-path="url(#pb5d724b876)" style="fill: #8da0cb; stroke: #ffffff; stroke-width: 0.5; stroke-linejoin: miter"/>
   </g>
   <g id="patch_24">
    <path d="M 112.795542 446.484708 
L 135.765061 446.484708 
L 135.765061 463.729904 
L 112.795542 463.729904 
z
" clip-path="url(#pb5d724b876)" style="fill: #fc8d62; stroke: #ffffff; stroke-width: 0.5; stroke-linejoin: miter"/>
   </g>
   <g id="patch_25">
    <path d="M 135.765061 475.226702 
L 143.421567 475.226702 
L 143.421567 492.471898 
L 135.765061 492.471898 
z
" clip-path="url(#pb5d724b876)" style="fill: #66c2a5; stroke: #ffffff; stroke-width: 0.5; stroke-linejoin: miter"/>
   </g>
   <g id="patch_26">
    <path d="M 143.421567 503.968696 
L 189.360603 503.968696 
L 189.360603 521.213892 
L 143.421567 521.213892 
z
" clip-path="url(#pb5d724b876)" style="fill: #e78ac3; stroke: #ffffff; stroke-width: 0.5; stroke-linejoin: miter"/>
   </g>
   <g id="matplotlib.axis_3">
    <g id="xtick_8">
     <g id="line2d_23">
      <path d="M 59.2 530.69875 
L 59.2 322.031875 
" clip-path="url(#pb5d724b876)" style="fill: none; stroke-dasharray: 2.96,1.28; stroke-dashoffset: 0; stroke: #b0b0b0; stroke-opacity: 0.3; stroke-width: 0.8"/>
     </g>
     <g id="line2d_24">
      <g>
       <use xlink:href="#m822ddfd2fb" x="59.2" y="530.69875" style="stroke: #000000; stroke-width: 0.8"/>
      </g>
     </g>
     <g id="text_21">
      <!-- 0 -->
      <g transform="translate(56.7 544.57375) scale(0.1 -0.1)">
       <use xlink:href="#SimHei-30"/>
      </g>
     </g>
    </g>
    <g id="xtick_9">
     <g id="line2d_25">
      <path d="M 212.330121 530.69875 
L 212.330121 322.031875 
" clip-path="url(#pb5d724b876)" style="fill: none; stroke-dasharray: 2.96,1.28; stroke-dashoffset: 0; stroke: #b0b0b0; stroke-opacity: 0.3; stroke-width: 0.8"/>
     </g>
     <g id="line2d_26">
      <g>
       <use xlink:href="#m822ddfd2fb" x="212.330121" y="530.69875" style="stroke: #000000; stroke-width: 0.8"/>
      </g>
     </g>
     <g id="text_22">
      <!-- 10 -->
      <g transform="translate(207.330121 544.57375) scale(0.1 -0.1)">
       <use xlink:href="#SimHei-31"/>
       <use xlink:href="#SimHei-30" transform="translate(50 0)"/>
      </g>
     </g>
    </g>
    <g id="xtick_10">
     <g id="line2d_27">
      <path d="M 365.460243 530.69875 
L 365.460243 322.031875 
" clip-path="url(#pb5d724b876)" style="fill: none; stroke-dasharray: 2.96,1.28; stroke-dashoffset: 0; stroke: #b0b0b0; stroke-opacity: 0.3; stroke-width: 0.8"/>
     </g>
     <g id="line2d_28">
      <g>
       <use xlink:href="#m822ddfd2fb" x="365.460243" y="530.69875" style="stroke: #000000; stroke-width: 0.8"/>
      </g>
     </g>
     <g id="text_23">
      <!-- 20 -->
      <g transform="translate(360.460243 544.57375) scale(0.1 -0.1)">
       <defs>
        <path id="SimHei-32" d="M 300 250 
Q 325 625 650 925 
Q 975 1225 1475 1862 
Q 1975 2500 2125 2850 
Q 2275 3200 2237 3450 
Q 2200 3700 2000 3862 
Q 1800 4025 1537 4000 
Q 1275 3975 1037 3800 
Q 800 3625 675 3275 
L 200 3350 
Q 400 3925 712 4187 
Q 1025 4450 1450 4475 
Q 1700 4500 1900 4462 
Q 2100 4425 2312 4287 
Q 2525 4150 2662 3875 
Q 2800 3600 2762 3212 
Q 2725 2825 2375 2287 
Q 2025 1750 1025 600 
L 2825 600 
L 2825 150 
L 300 150 
L 300 250 
z
" transform="scale(0.015625)"/>
       </defs>
       <use xlink:href="#SimHei-32"/>
       <use xlink:href="#SimHei-30" transform="translate(50 0)"/>
      </g>
     </g>
    </g>
    <g id="xtick_11">
     <g id="line2d_29">
      <path d="M 518.590364 530.69875 
L 518.590364 322.031875 
" clip-path="url(#pb5d724b876)" style="fill: none; stroke-dasharray: 2.96,1.28; stroke-dashoffset: 0; stroke: #b0b0b0; stroke-opacity: 0.3; stroke-width: 0.8"/>
     </g>
     <g id="line2d_30">
      <g>
       <use xlink:href="#m822ddfd2fb" x="518.590364" y="530.69875" style="stroke: #000000; stroke-width: 0.8"/>
      </g>
     </g>
     <g id="text_24">
      <!-- 30 -->
      <g transform="translate(513.590364 544.57375) scale(0.1 -0.1)">
       <use xlink:href="#SimHei-33"/>
       <use xlink:href="#SimHei-30" transform="translate(50 0)"/>
      </g>
     </g>
    </g>
    <g id="xtick_12">
     <g id="line2d_31">
      <path d="M 671.720485 530.69875 
L 671.720485 322.031875 
" clip-path="url(#pb5d724b876)" style="fill: none; stroke-dasharray: 2.96,1.28; stroke-dashoffset: 0; stroke: #b0b0b0; stroke-opacity: 0.3; stroke-width: 0.8"/>
     </g>
     <g id="line2d_32">
      <g>
       <use xlink:href="#m822ddfd2fb" x="671.720485" y="530.69875" style="stroke: #000000; stroke-width: 0.8"/>
      </g>
     </g>
     <g id="text_25">
      <!-- 40 -->
      <g transform="translate(666.720485 544.57375) scale(0.1 -0.1)">
       <defs>
        <path id="SimHei-34" d="M 2000 1100 
L 75 1100 
L 75 1525 
L 2100 4450 
L 2475 4450 
L 2475 1525 
L 3075 1525 
L 3075 1100 
L 2475 1100 
L 2475 150 
L 2000 150 
L 2000 1100 
z
M 2000 1525 
L 2000 3500 
L 600 1525 
L 2000 1525 
z
" transform="scale(0.015625)"/>
       </defs>
       <use xlink:href="#SimHei-34"/>
       <use xlink:href="#SimHei-30" transform="translate(50 0)"/>
      </g>
     </g>
    </g>
    <g id="xtick_13">
     <g id="line2d_33">
      <path d="M 824.850606 530.69875 
L 824.850606 322.031875 
" clip-path="url(#pb5d724b876)" style="fill: none; stroke-dasharray: 2.96,1.28; stroke-dashoffset: 0; stroke: #b0b0b0; stroke-opacity: 0.3; stroke-width: 0.8"/>
     </g>
     <g id="line2d_34">
      <g>
       <use xlink:href="#m822ddfd2fb" x="824.850606" y="530.69875" style="stroke: #000000; stroke-width: 0.8"/>
      </g>
     </g>
     <g id="text_26">
      <!-- 50 -->
      <g transform="translate(819.850606 544.57375) scale(0.1 -0.1)">
       <use xlink:href="#SimHei-35"/>
       <use xlink:href="#SimHei-30" transform="translate(50 0)"/>
      </g>
     </g>
    </g>
    <g id="xtick_14">
     <g id="line2d_35">
      <path d="M 977.980728 530.69875 
L 977.980728 322.031875 
" clip-path="url(#pb5d724b876)" style="fill: none; stroke-dasharray: 2.96,1.28; stroke-dashoffset: 0; stroke: #b0b0b0; stroke-opacity: 0.3; stroke-width: 0.8"/>
     </g>
     <g id="line2d_36">
      <g>
       <use xlink:href="#m822ddfd2fb" x="977.980728" y="530.69875" style="stroke: #000000; stroke-width: 0.8"/>
      </g>
     </g>
     <g id="text_27">
      <!-- 60 -->
      <g transform="translate(972.980728 544.57375) scale(0.1 -0.1)">
       <use xlink:href="#SimHei-36"/>
       <use xlink:href="#SimHei-30" transform="translate(50 0)"/>
      </g>
     </g>
    </g>
    <g id="text_28">
     <!-- 延迟 (μs) -->
     <g transform="translate(498.9 558.632344) scale(0.11 -0.11)">
      <defs>
       <path id="SimHei-5ef6" d="M 2100 4750 
Q 1500 3450 1275 2875 
L 2175 2875 
Q 2050 2200 1937 1712 
Q 1825 1225 1650 750 
Q 2025 425 2712 212 
Q 3400 0 4175 -25 
Q 4950 -50 6175 75 
Q 5950 -200 5925 -475 
Q 4825 -500 4112 -462 
Q 3400 -425 2900 -312 
Q 2400 -200 2075 -37 
Q 1750 125 1425 375 
Q 1050 -150 650 -525 
Q 500 -350 250 -200 
Q 725 200 1100 700 
Q 825 1025 687 1250 
Q 550 1475 400 1775 
Q 500 1825 800 2000 
Q 950 1700 1050 1537 
Q 1150 1375 1300 1175 
Q 1475 1625 1650 2500 
Q 1000 2500 725 2425 
L 600 2875 
Q 825 3000 1050 3500 
Q 1275 4000 1400 4350 
Q 800 4350 400 4325 
L 400 4775 
Q 1125 4750 1450 4750 
L 2100 4750 
z
M 5675 4625 
Q 5350 4625 4500 4400 
L 4500 3100 
Q 5200 3100 5600 3125 
L 5600 2675 
Q 5200 2700 4500 2700 
L 4500 1200 
Q 4975 1200 5675 1225 
L 5675 750 
Q 5000 775 4600 775 
L 2700 775 
Q 2725 1400 2725 1825 
L 2725 2400 
Q 2725 2850 2700 3525 
L 3275 3525 
Q 3225 2850 3225 2200 
L 3225 1200 
L 4000 1200 
L 4000 4325 
Q 3075 4175 2650 4100 
Q 2600 4275 2450 4575 
Q 3300 4650 3887 4762 
Q 4475 4875 5200 5175 
Q 5275 5050 5675 4625 
z
" transform="scale(0.015625)"/>
       <path id="SimHei-8fdf" d="M 5575 4825 
Q 5550 4100 5550 3700 
Q 5550 3300 5575 2550 
L 5075 2550 
L 5075 2825 
L 3175 2825 
Q 3150 2150 2987 1675 
Q 2825 1200 2400 475 
Q 2200 625 1900 750 
Q 2300 1200 2462 1625 
Q 2625 2050 2675 2425 
Q 2725 2800 2725 3400 
Q 2725 4000 2700 4825 
L 5575 4825 
z
M 1650 2975 
Q 1625 2500 1625 2000 
L 1625 600 
Q 2450 75 3800 50 
Q 5150 25 6150 150 
Q 5900 -175 5850 -450 
Q 4925 -450 4212 -437 
Q 3500 -425 3075 -362 
Q 2650 -300 2312 -175 
Q 1975 -50 1725 100 
Q 1475 250 1250 37 
Q 1025 -175 775 -550 
Q 575 -350 325 -175 
Q 900 325 1175 525 
L 1175 2550 
Q 725 2550 375 2525 
L 375 3000 
Q 750 2975 1175 2975 
L 1650 2975 
z
M 5075 3275 
L 5075 4375 
L 3175 4375 
L 3175 3275 
L 5075 3275 
z
M 4150 2450 
Q 4500 2175 5675 925 
Q 5475 775 5225 500 
Q 4650 1225 3800 2075 
Q 3975 2225 4150 2450 
z
M 1275 5100 
Q 1600 4450 1825 3900 
Q 1550 3800 1350 3700 
Q 1125 4325 825 4900 
Q 1075 4975 1275 5100 
z
" transform="scale(0.015625)"/>
       <path id="SimHei-28" d="M 2975 -200 
L 2700 -475 
Q 2075 125 1762 775 
Q 1450 1425 1450 2250 
Q 1450 3075 1762 3725 
Q 2075 4375 2700 5000 
L 2975 4725 
Q 2400 4175 2112 3587 
Q 1825 3000 1825 2250 
Q 1825 1500 2112 912 
Q 2400 325 2975 -200 
z
" transform="scale(0.015625)"/>
       <path id="SimHei-29" d="M 1675 2250 
Q 1675 1425 1362 775 
Q 1050 125 425 -475 
L 150 -200 
Q 725 325 1012 912 
Q 1300 1500 1300 2250 
Q 1300 3000 1012 3587 
Q 725 4175 150 4725 
L 425 5000 
Q 1050 4375 1362 3725 
Q 1675 3075 1675 2250 
z
" transform="scale(0.015625)"/>
      </defs>
      <use xlink:href="#SimHei-5ef6"/>
      <use xlink:href="#SimHei-8fdf" transform="translate(100 0)"/>
      <use xlink:href="#SimHei-20" transform="translate(200 0)"/>
      <use xlink:href="#SimHei-28" transform="translate(250 0)"/>
      <use xlink:href="#SimHei-3bc" transform="translate(300 0)"/>
      <use xlink:href="#SimHei-73" transform="translate(400 0)"/>
      <use xlink:href="#SimHei-29" transform="translate(450 0)"/>
     </g>
    </g>
   </g>
   <g id="matplotlib.axis_4">
    <g id="ytick_8">
     <g id="line2d_37">
      <g>
       <use xlink:href="#m7913e2c82d" x="59.2" y="340.139331" style="stroke: #000000; stroke-width: 0.8"/>
      </g>
     </g>
     <g id="text_29">
      <!-- Token验证 -->
      <g transform="translate(7.2 344.123706) scale(0.1 -0.1)">
       <use xlink:href="#SimHei-54"/>
       <use xlink:href="#SimHei-6f" transform="translate(50 0)"/>
       <use xlink:href="#SimHei-6b" transform="translate(100 0)"/>
       <use xlink:href="#SimHei-65" transform="translate(150 0)"/>
       <use xlink:href="#SimHei-6e" transform="translate(200 0)"/>
       <use xlink:href="#SimHei-9a8c" transform="translate(250 0)"/>
       <use xlink:href="#SimHei-8bc1" transform="translate(350 0)"/>
      </g>
     </g>
    </g>
    <g id="ytick_9">
     <g id="line2d_38">
      <g>
       <use xlink:href="#m7913e2c82d" x="59.2" y="368.881325" style="stroke: #000000; stroke-width: 0.8"/>
      </g>
     </g>
     <g id="text_30">
      <!-- 冻结检查 -->
      <g transform="translate(12.2 372.8657) scale(0.1 -0.1)">
       <use xlink:href="#SimHei-51bb"/>
       <use xlink:href="#SimHei-7ed3" transform="translate(100 0)"/>
       <use xlink:href="#SimHei-68c0" transform="translate(200 0)"/>
       <use xlink:href="#SimHei-67e5" transform="translate(300 0)"/>
      </g>
     </g>
    </g>
    <g id="ytick_10">
     <g id="line2d_39">
      <g>
       <use xlink:href="#m7913e2c82d" x="59.2" y="397.623319" style="stroke: #000000; stroke-width: 0.8"/>
      </g>
     </g>
     <g id="text_31">
      <!-- 网络→ME -->
      <g transform="translate(12.2 401.607694) scale(0.1 -0.1)">
       <use xlink:href="#SimHei-7f51"/>
       <use xlink:href="#SimHei-7edc" transform="translate(100 0)"/>
       <use xlink:href="#SimHei-2192" transform="translate(200 0)"/>
       <use xlink:href="#SimHei-4d" transform="translate(300 0)"/>
       <use xlink:href="#SimHei-45" transform="translate(350 0)"/>
      </g>
     </g>
    </g>
    <g id="ytick_11">
     <g id="line2d_40">
      <g>
       <use xlink:href="#m7913e2c82d" x="59.2" y="426.365312" style="stroke: #000000; stroke-width: 0.8"/>
      </g>
     </g>
     <g id="text_32">
      <!-- 撮合执行 -->
      <g transform="translate(12.2 430.466875) scale(0.1 -0.1)">
       <use xlink:href="#SimHei-64ae"/>
       <use xlink:href="#SimHei-5408" transform="translate(100 0)"/>
       <use xlink:href="#SimHei-6267" transform="translate(200 0)"/>
       <use xlink:href="#SimHei-884c" transform="translate(300 0)"/>
      </g>
     </g>
    </g>
    <g id="ytick_12">
     <g id="line2d_41">
      <g>
       <use xlink:href="#m7913e2c82d" x="59.2" y="455.107306" style="stroke: #000000; stroke-width: 0.8"/>
      </g>
     </g>
     <g id="text_33">
      <!-- 网络←ME -->
      <g transform="translate(12.2 459.091681) scale(0.1 -0.1)">
       <use xlink:href="#SimHei-7f51"/>
       <use xlink:href="#SimHei-7edc" transform="translate(100 0)"/>
       <use xlink:href="#SimHei-2190" transform="translate(200 0)"/>
       <use xlink:href="#SimHei-4d" transform="translate(300 0)"/>
       <use xlink:href="#SimHei-45" transform="translate(350 0)"/>
      </g>
     </g>
    </g>
    <g id="ytick_13">
     <g id="line2d_42">
      <g>
       <use xlink:href="#m7913e2c82d" x="59.2" y="483.8493" style="stroke: #000000; stroke-width: 0.8"/>
      </g>
     </g>
     <g id="text_34">
      <!-- 清算处理 -->
      <g transform="translate(12.2 487.892269) scale(0.1 -0.1)">
       <use xlink:href="#SimHei-6e05"/>
       <use xlink:href="#SimHei-7b97" transform="translate(100 0)"/>
       <use xlink:href="#SimHei-5904" transform="translate(200 0)"/>
       <use xlink:href="#SimHei-7406" transform="translate(300 0)"/>
      </g>
     </g>
    </g>
    <g id="ytick_14">
     <g id="line2d_43">
      <g>
       <use xlink:href="#m7913e2c82d" x="59.2" y="512.591294" style="stroke: #000000; stroke-width: 0.8"/>
      </g>
     </g>
     <g id="text_35">
      <!-- Raft同步 -->
      <g transform="translate(12.2 516.458481) scale(0.1 -0.1)">
       <use xlink:href="#SimHei-52"/>
       <use xlink:href="#SimHei-61" transform="translate(50 0)"/>
       <use xlink:href="#SimHei-66" transform="translate(100 0)"/>
       <use xlink:href="#SimHei-74" transform="translate(150 0)"/>
       <use xlink:href="#SimHei-540c" transform="translate(200 0)"/>
       <use xlink:href="#SimHei-6b65" transform="translate(300 0)"/>
      </g>
     </g>
    </g>
   </g>
   <g id="line2d_44">
    <path d="M 189.360603 530.69875 
L 189.360603 322.031875 
" clip-path="url(#pb5d724b876)" style="fill: none; stroke-dasharray: 7.4,3.2; stroke-dashoffset: 0; stroke: #2ca02c; stroke-opacity: 0.7; stroke-width: 2"/>
   </g>
   <g id="patch_27">
    <path d="M 59.2 530.69875 
L 59.2 322.031875 
" style="fill: none; stroke: #000000; stroke-width: 0.8; stroke-linejoin: miter; stroke-linecap: square"/>
   </g>
   <g id="patch_28">
    <path d="M 993.6 530.69875 
L 993.6 322.031875 
" style="fill: none; stroke: #000000; stroke-width: 0.8; stroke-linejoin: miter; stroke-linecap: square"/>
   </g>
   <g id="patch_29">
    <path d="M 59.2 530.69875 
L 993.6 530.69875 
" style="fill: none; stroke: #000000; stroke-width: 0.8; stroke-linejoin: miter; stroke-linecap: square"/>
   </g>
   <g id="patch_30">
    <path d="M 59.2 322.031875 
L 993.6 322.031875 
" style="fill: none; stroke: #000000; stroke-width: 0.8; stroke-linejoin: miter; stroke-linecap: square"/>
   </g>
   <g id="text_36">
    <!-- 0.5 -->
    <g style="fill: #666666" transform="translate(69.919108 342.389331) scale(0.08 -0.08)">
     <use xlink:href="#SimHei-30"/>
     <use xlink:href="#SimHei-2e" transform="translate(50 0)"/>
     <use xlink:href="#SimHei-35" transform="translate(100 0)"/>
    </g>
   </g>
   <g id="text_37">
    <!-- 0.5 -->
    <g style="fill: #666666" transform="translate(77.575615 371.131325) scale(0.08 -0.08)">
     <use xlink:href="#SimHei-30"/>
     <use xlink:href="#SimHei-2e" transform="translate(50 0)"/>
     <use xlink:href="#SimHei-35" transform="translate(100 0)"/>
    </g>
   </g>
   <g id="text_38">
    <!-- 1.5 -->
    <g style="fill: #ffffff" transform="translate(79.247771 400.154569) scale(0.09 -0.09)">
     <use xlink:href="#SimHei-31"/>
     <use xlink:href="#SimHei-2e" transform="translate(50 0)"/>
     <use xlink:href="#SimHei-35" transform="translate(100 0)"/>
    </g>
   </g>
   <g id="text_39">
    <!-- 1.0 -->
    <g style="fill: #333333" transform="translate(98.389036 428.896562) scale(0.09 -0.09)">
     <use xlink:href="#SimHei-31"/>
     <use xlink:href="#SimHei-2e" transform="translate(50 0)"/>
     <use xlink:href="#SimHei-30" transform="translate(100 0)"/>
    </g>
   </g>
   <g id="text_40">
    <!-- 1.5 -->
    <g style="fill: #ffffff" transform="translate(117.530302 457.638556) scale(0.09 -0.09)">
     <use xlink:href="#SimHei-31"/>
     <use xlink:href="#SimHei-2e" transform="translate(50 0)"/>
     <use xlink:href="#SimHei-35" transform="translate(100 0)"/>
    </g>
   </g>
   <g id="text_41">
    <!-- 0.5 -->
    <g style="fill: #666666" transform="translate(146.484169 486.0993) scale(0.08 -0.08)">
     <use xlink:href="#SimHei-30"/>
     <use xlink:href="#SimHei-2e" transform="translate(50 0)"/>
     <use xlink:href="#SimHei-35" transform="translate(100 0)"/>
    </g>
   </g>
   <g id="text_42">
    <!-- 3.0 -->
    <g style="fill: #ffffff" transform="translate(159.641085 515.122544) scale(0.09 -0.09)">
     <use xlink:href="#SimHei-33"/>
     <use xlink:href="#SimHei-2e" transform="translate(50 0)"/>
     <use xlink:href="#SimHei-30" transform="translate(100 0)"/>
    </g>
   </g>
   <g id="text_43">
    <!-- 8.5μs -->
    <g style="fill: #2ca02c" transform="translate(197.017109 429.177812) scale(0.1 -0.1)">
     <defs>
      <path id="SimHei-38" d="M 175 1375 
Q 175 1675 325 1962 
Q 475 2250 825 2425 
Q 525 2600 425 2812 
Q 325 3025 312 3300 
Q 300 3575 387 3775 
Q 475 3975 650 4150 
Q 825 4325 1037 4387 
Q 1250 4450 1500 4450 
Q 1750 4450 1950 4400 
Q 2150 4350 2375 4187 
Q 2600 4025 2700 3725 
Q 2800 3425 2687 3025 
Q 2575 2625 2100 2400 
Q 2525 2275 2700 2012 
Q 2875 1750 2875 1375 
Q 2875 1000 2762 775 
Q 2650 550 2512 400 
Q 2375 250 2137 162 
Q 1900 75 1537 75 
Q 1175 75 912 162 
Q 650 250 475 425 
Q 300 600 237 837 
Q 175 1075 175 1375 
z
M 687 1400 
Q 675 1100 787 875 
Q 900 650 1200 587 
Q 1500 525 1825 600 
Q 2150 675 2275 950 
Q 2400 1225 2362 1500 
Q 2325 1775 2050 1962 
Q 1775 2150 1450 2125 
Q 1125 2100 912 1900 
Q 700 1700 687 1400 
z
M 775 3350 
Q 775 3100 950 2875 
Q 1125 2650 1500 2650 
Q 1875 2650 2062 2875 
Q 2250 3100 2237 3412 
Q 2225 3725 2012 3875 
Q 1800 4025 1437 4000 
Q 1075 3975 925 3787 
Q 775 3600 775 3350 
z
" transform="scale(0.015625)"/>
     </defs>
     <use xlink:href="#SimHei-38"/>
     <use xlink:href="#SimHei-2e" transform="translate(50 0)"/>
     <use xlink:href="#SimHei-35" transform="translate(100 0)"/>
     <use xlink:href="#SimHei-3bc" transform="translate(150 0)"/>
     <use xlink:href="#SimHei-73" transform="translate(250 0)"/>
    </g>
   </g>
   <g id="text_44">
    <!-- RDMA Two-sided  —  总计: 8.5μs -->
    <g transform="translate(59.2 312.031875) scale(0.12 -0.12)">
     <defs>
      <path id="SimHei-77" d="M 3075 2925 
L 2450 75 
L 1975 75 
L 1575 2250 
L 1525 2250 
L 1125 75 
L 650 75 
L 25 2925 
L 550 2925 
L 875 1050 
L 925 1050 
L 1275 2925 
L 1825 2925 
L 2175 1050 
L 2225 1050 
L 2550 2925 
L 3075 2925 
z
" transform="scale(0.015625)"/>
      <path id="SimHei-2d" d="M 2975 2125 
L 125 2125 
L 125 2525 
L 2975 2525 
L 2975 2125 
z
" transform="scale(0.015625)"/>
      <path id="SimHei-69" d="M 1800 3725 
L 1300 3725 
L 1300 4375 
L 1800 4375 
L 1800 3725 
z
M 1800 125 
L 1300 125 
L 1300 2925 
L 1800 2925 
L 1800 125 
z
" transform="scale(0.015625)"/>
      <path id="SimHei-64" d="M 2750 125 
L 2250 125 
L 2250 500 
Q 2100 275 1900 175 
Q 1700 75 1425 75 
Q 925 75 575 437 
Q 225 800 225 1525 
Q 225 2250 575 2625 
Q 925 3000 1425 3000 
Q 1700 3000 1900 2887 
Q 2100 2775 2250 2550 
L 2250 4400 
L 2750 4400 
L 2750 125 
z
M 2250 1525 
Q 2250 2000 2037 2275 
Q 1825 2550 1525 2550 
Q 1150 2550 962 2275 
Q 775 2000 775 1525 
Q 775 1050 962 787 
Q 1150 525 1525 525 
Q 1825 525 2037 787 
Q 2250 1050 2250 1525 
z
" transform="scale(0.015625)"/>
     </defs>
     <use xlink:href="#SimHei-52"/>
     <use xlink:href="#SimHei-44" transform="translate(50 0)"/>
     <use xlink:href="#SimHei-4d" transform="translate(100 0)"/>
     <use xlink:href="#SimHei-41" transform="translate(150 0)"/>
     <use xlink:href="#SimHei-20" transform="translate(200 0)"/>
     <use xlink:href="#SimHei-54" transform="translate(250 0)"/>
     <use xlink:href="#SimHei-77" transform="translate(300 0)"/>
     <use xlink:href="#SimHei-6f" transform="translate(350 0)"/>
     <use xlink:href="#SimHei-2d" transform="translate(400 0)"/>
     <use xlink:href="#SimHei-73" transform="translate(450 0)"/>
     <use xlink:href="#SimHei-69" transform="translate(500 0)"/>
     <use xlink:href="#SimHei-64" transform="translate(550 0)"/>
     <use xlink:href="#SimHei-65" transform="translate(600 0)"/>
     <use xlink:href="#SimHei-64" transform="translate(650 0)"/>
     <use xlink:href="#SimHei-20" transform="translate(700 0)"/>
     <use xlink:href="#SimHei-20" transform="translate(750 0)"/>
     <use xlink:href="#SimHei-2014" transform="translate(800 0)"/>
     <use xlink:href="#SimHei-20" transform="translate(900 0)"/>
     <use xlink:href="#SimHei-20" transform="translate(950 0)"/>
     <use xlink:href="#SimHei-603b" transform="translate(1000 0)"/>
     <use xlink:href="#SimHei-8ba1" transform="translate(1100 0)"/>
     <use xlink:href="#SimHei-3a" transform="translate(1200 0)"/>
     <use xlink:href="#SimHei-20" transform="translate(1250 0)"/>
     <use xlink:href="#SimHei-38" transform="translate(1300 0)"/>
     <use xlink:href="#SimHei-2e" transform="translate(1350 0)"/>
     <use xlink:href="#SimHei-35" transform="translate(1400 0)"/>
     <use xlink:href="#SimHei-3bc" transform="translate(1450 0)"/>
     <use xlink:href="#SimHei-73" transform="translate(1550 0)"/>
    </g>
   </g>
  </g>
  <g id="text_45">
   <!-- 端到端延迟分解对比 (P99, 含 Raft)    性能提升: 6.6x -->
   <g transform="translate(321.9 18.575) scale(0.14 -0.14)">
    <defs>
     <path id="SimHei-7aef" d="M 4450 -50 
L 4450 1600 
L 3950 1600 
L 3950 675 
Q 3950 525 3975 -25 
L 3525 -25 
Q 3550 500 3550 650 
L 3550 1600 
L 3075 1600 
L 3075 -600 
L 2650 -600 
Q 2675 25 2675 850 
Q 2675 1675 2650 1975 
L 3850 1975 
Q 3900 2250 3950 2600 
L 3225 2600 
Q 3075 2600 2650 2575 
L 2650 3025 
Q 2875 3000 3175 3000 
L 5375 3000 
Q 5750 3000 6025 3025 
L 6025 2575 
Q 5725 2600 5375 2600 
L 4425 2600 
L 4275 1975 
L 5950 1975 
Q 5925 1425 5925 1225 
L 5925 25 
Q 5925 -350 5737 -475 
Q 5550 -600 5150 -700 
Q 5075 -375 4950 -175 
Q 5225 -175 5350 -150 
Q 5475 -125 5475 100 
L 5475 1600 
L 4875 1600 
L 4875 525 
Q 4875 250 4900 -50 
L 4450 -50 
z
M 3275 4950 
Q 3250 4700 3250 4375 
L 3250 3875 
L 4025 3875 
L 4025 4675 
Q 4025 4950 3975 5225 
L 4500 5225 
Q 4475 4925 4475 4625 
L 4475 3875 
L 5325 3875 
L 5325 4400 
Q 5325 4700 5300 4950 
L 5800 4950 
Q 5775 4650 5775 4200 
Q 5775 3775 5800 3500 
L 2825 3500 
Q 2850 3850 2850 4275 
Q 2850 4700 2825 4950 
L 3275 4950 
z
M 1350 750 
Q 1525 1550 1600 1987 
Q 1675 2425 1775 3150 
Q 2050 3075 2325 3025 
Q 2200 2700 2087 2187 
Q 1975 1675 1775 875 
Q 2025 925 2425 1025 
Q 2400 800 2425 625 
Q 1975 525 1337 325 
Q 700 125 425 -25 
Q 325 325 250 525 
Q 800 625 1350 750 
z
M 800 1200 
Q 625 2150 425 2875 
Q 750 2925 900 2975 
Q 1100 2175 1275 1325 
Q 1050 1275 800 1200 
z
M 2425 3400 
Q 1950 3425 1450 3425 
Q 950 3425 425 3400 
L 425 3825 
Q 975 3800 1450 3800 
Q 1950 3800 2425 3825 
L 2425 3400 
z
M 1400 5150 
Q 1650 4725 1875 4300 
L 1425 4100 
Q 1225 4550 975 4900 
Q 1225 5025 1400 5150 
z
" transform="scale(0.015625)"/>
     <path id="SimHei-5230" d="M 3675 150 
Q 2275 -50 1537 -175 
Q 800 -300 500 -400 
Q 425 -75 325 225 
Q 775 250 1062 275 
Q 1350 300 1750 350 
L 1750 1325 
L 1400 1325 
Q 900 1325 550 1275 
L 550 1750 
Q 975 1725 1325 1725 
L 1750 1725 
L 1750 2550 
Q 1250 2525 1037 2500 
Q 825 2475 575 2425 
Q 525 2750 425 3000 
Q 825 3100 1137 3500 
Q 1450 3900 1625 4400 
L 1250 4400 
Q 825 4400 450 4375 
L 450 4850 
Q 850 4825 1225 4825 
L 2825 4825 
Q 3275 4825 3625 4850 
L 3625 4375 
Q 3250 4400 2825 4400 
L 1800 4400 
L 2250 4100 
Q 2000 3900 1775 3600 
Q 1550 3300 1250 2950 
Q 2150 3000 2925 3050 
Q 2725 3375 2475 3700 
Q 2725 3825 2925 3975 
Q 3175 3625 3400 3300 
Q 3625 2975 3825 2700 
Q 3600 2525 3325 2375 
Q 3225 2550 3150 2675 
Q 2625 2600 2275 2575 
L 2275 1725 
L 2750 1725 
Q 3175 1725 3475 1750 
L 3475 1275 
Q 3150 1325 2775 1325 
L 2275 1325 
L 2275 400 
Q 2975 500 3750 625 
Q 3700 375 3675 150 
z
M 5875 5175 
Q 5825 4800 5825 4325 
L 5825 225 
Q 5825 -350 5612 -450 
Q 5400 -550 4700 -675 
Q 4625 -350 4475 -75 
Q 5000 -75 5162 -37 
Q 5325 0 5325 375 
L 5325 4325 
Q 5325 4875 5300 5175 
L 5875 5175 
z
M 4600 4375 
Q 4550 4050 4550 3475 
L 4550 1600 
Q 4550 1075 4575 725 
L 4050 725 
Q 4075 1075 4075 1600 
L 4075 3575 
Q 4075 4075 4050 4375 
L 4600 4375 
z
" transform="scale(0.015625)"/>
     <path id="SimHei-5206" d="M 1000 -650 
Q 825 -375 575 -225 
Q 975 -75 1300 137 
Q 1625 350 1875 662 
Q 2125 975 2250 1350 
Q 2375 1725 2425 2275 
Q 1850 2275 1500 2250 
L 1500 2775 
Q 1900 2750 2525 2750 
L 5025 2750 
Q 4975 2375 4950 2100 
L 4750 250 
Q 4700 -200 4350 -350 
Q 4000 -500 3575 -525 
Q 3550 -275 3325 50 
Q 3850 25 4037 87 
Q 4225 150 4275 525 
L 4450 2275 
L 2950 2275 
Q 2875 1625 2737 1187 
Q 2600 750 2350 425 
Q 2100 100 1750 -175 
Q 1400 -450 1000 -650 
z
M 3950 5175 
Q 4125 4650 4662 3975 
Q 5200 3300 6175 2800 
Q 5975 2625 5775 2275 
Q 5325 2600 4987 2887 
Q 4650 3175 4425 3425 
Q 4200 3675 3925 4137 
Q 3650 4600 3475 5000 
Q 3750 5075 3950 5175 
z
M 2700 4825 
Q 2475 4425 2325 4125 
Q 2175 3825 2025 3587 
Q 1875 3350 1575 2950 
Q 1275 2550 850 2125 
Q 625 2350 400 2475 
Q 900 2925 1187 3300 
Q 1475 3675 1737 4112 
Q 2000 4550 2200 5075 
Q 2400 4925 2700 4825 
z
" transform="scale(0.015625)"/>
     <path id="SimHei-89e3" d="M 1925 5025 
Q 1725 4925 1625 4575 
L 2925 4575 
Q 2800 4400 2600 4100 
Q 2400 3800 2325 3650 
L 3225 3650 
Q 3175 3150 3175 2650 
L 3175 75 
Q 3175 -225 3012 -312 
Q 2850 -400 2500 -450 
Q 2450 -175 2350 75 
Q 2550 75 2650 87 
Q 2750 100 2750 325 
L 2750 1150 
L 2225 1150 
L 2225 -25 
L 1800 -25 
L 1800 1150 
L 1275 1150 
Q 1250 775 1150 375 
Q 1050 -25 825 -500 
Q 600 -375 350 -250 
Q 600 100 725 612 
Q 850 1125 875 1925 
Q 900 2725 875 3525 
Q 675 3300 550 3175 
Q 400 3375 200 3525 
Q 575 3825 887 4262 
Q 1200 4700 1400 5300 
Q 1600 5175 1925 5025 
z
M 4325 2425 
Q 4200 2325 4150 2125 
L 4575 2125 
Q 4575 2650 4550 2825 
L 5050 2825 
Q 5000 2600 5000 2125 
L 5350 2125 
Q 5725 2125 5950 2150 
L 5950 1700 
Q 5625 1750 5300 1750 
L 5000 1750 
L 5000 1025 
L 5175 1025 
Q 5650 1025 6150 1050 
L 6150 625 
Q 5675 650 5175 650 
L 5000 650 
L 5000 225 
Q 5000 -125 5025 -650 
L 4550 -650 
Q 4575 -125 4575 225 
L 4575 650 
L 4025 650 
Q 3750 650 3325 625 
L 3325 1050 
Q 3700 1025 4025 1025 
L 4575 1025 
L 4575 1750 
L 3950 1750 
Q 3875 1550 3725 1250 
Q 3550 1350 3325 1525 
Q 3500 1725 3625 2050 
Q 3750 2375 3825 2675 
L 4325 2425 
z
M 4900 2975 
Q 4850 3250 4725 3500 
Q 5000 3500 5162 3525 
Q 5325 3550 5350 3675 
Q 5375 3800 5425 4550 
L 4525 4550 
Q 4375 3850 4225 3537 
Q 4075 3225 3750 2850 
Q 3600 3050 3350 3225 
Q 3625 3425 3800 3737 
Q 3975 4050 4050 4550 
Q 3750 4550 3325 4525 
L 3325 4950 
Q 3725 4925 4050 4925 
L 5925 4925 
Q 5850 3700 5787 3450 
Q 5725 3200 5475 3100 
Q 5225 3000 4900 2975 
z
M 1825 3650 
Q 2025 3900 2175 4200 
L 1375 4200 
Q 1150 3900 975 3650 
L 1825 3650 
z
M 2750 1550 
L 2750 2225 
L 2225 2225 
L 2225 1550 
L 2750 1550 
z
M 2750 2600 
L 2750 3275 
L 2225 3275 
L 2225 2600 
L 2750 2600 
z
M 1800 1550 
L 1800 2225 
L 1325 2225 
L 1300 1550 
L 1800 1550 
z
M 1800 2600 
L 1800 3275 
L 1325 3275 
L 1325 2600 
L 1800 2600 
z
" transform="scale(0.015625)"/>
     <path id="SimHei-5bf9" d="M 525 4250 
Q 900 4225 1400 4225 
L 2825 4225 
Q 2575 2625 2200 1750 
Q 2825 875 3125 400 
Q 2950 275 2725 75 
Q 2200 975 1950 1300 
Q 1650 775 1350 425 
Q 1050 75 600 -350 
Q 425 -125 200 -25 
Q 625 275 975 675 
Q 1325 1075 1650 1700 
Q 1050 2425 550 2900 
Q 700 3025 900 3225 
Q 1625 2425 1875 2150 
Q 2200 3050 2300 3825 
L 1400 3825 
Q 900 3825 525 3800 
L 525 4250 
z
M 2925 3700 
Q 3525 3675 3750 3675 
L 4825 3675 
L 4825 4425 
Q 4825 4750 4775 5125 
L 5350 5125 
Q 5325 4825 5325 4375 
L 5325 3675 
Q 5575 3675 6150 3700 
L 6150 3250 
Q 5575 3275 5325 3275 
L 5325 125 
Q 5350 -350 5012 -475 
Q 4675 -600 4250 -650 
Q 4175 -350 4025 -100 
Q 4575 -100 4712 -37 
Q 4850 25 4825 325 
L 4825 3275 
L 3775 3275 
Q 3550 3275 2925 3225 
L 2925 3700 
z
M 3450 2725 
Q 3875 1975 4175 1325 
Q 3850 1200 3700 1075 
Q 3475 1750 3050 2475 
Q 3225 2550 3450 2725 
z
" transform="scale(0.015625)"/>
     <path id="SimHei-6bd4" d="M 3775 5100 
Q 3750 4575 3750 4100 
L 3750 3050 
Q 4925 3600 5475 4175 
Q 5675 3900 5900 3675 
Q 5600 3500 5037 3187 
Q 4475 2875 3750 2550 
L 3750 450 
Q 3750 100 4050 100 
L 5000 100 
Q 5175 100 5262 250 
Q 5350 400 5450 900 
Q 5650 775 6025 675 
Q 5850 0 5650 -175 
Q 5450 -350 5225 -350 
L 3900 -350 
Q 3250 -350 3250 275 
L 3250 4000 
Q 3250 4550 3225 5100 
L 3775 5100 
z
M 1275 4975 
Q 1250 4575 1250 4000 
L 1250 3150 
L 1850 3150 
Q 2325 3150 2875 3175 
L 2875 2650 
Q 2325 2675 1850 2675 
L 1250 2675 
L 1250 475 
Q 1650 650 1962 812 
Q 2275 975 2850 1275 
Q 2900 950 2950 750 
Q 2375 475 1762 175 
Q 1150 -125 925 -325 
Q 750 -100 575 200 
Q 700 300 750 600 
L 750 3950 
Q 750 4550 725 4975 
L 1275 4975 
z
" transform="scale(0.015625)"/>
     <path id="SimHei-2c" d="M 1100 125 
L 775 -550 
L 525 -550 
L 775 125 
L 525 125 
L 525 675 
L 1100 675 
L 1100 125 
z
" transform="scale(0.015625)"/>
     <path id="SimHei-542b" d="M 4525 -575 
L 4525 -200 
L 1850 -200 
L 1850 -625 
L 1325 -625 
Q 1350 -275 1350 275 
Q 1350 850 1325 1450 
L 5050 1450 
Q 5025 1175 5025 425 
Q 5025 -300 5050 -575 
L 4525 -575 
z
M 3350 4850 
Q 3625 4525 4325 4062 
Q 5025 3600 6150 3300 
Q 5850 3075 5750 2750 
Q 5050 3025 4337 3462 
Q 3625 3900 3125 4500 
Q 2500 3800 1912 3387 
Q 1325 2975 625 2650 
Q 550 2850 275 3100 
Q 1100 3325 1862 3925 
Q 2625 4525 2975 5275 
Q 3325 5150 3525 5050 
L 3350 4850 
z
M 4525 200 
L 4525 1050 
L 1850 1050 
L 1850 200 
L 4525 200 
z
M 4775 2875 
Q 4525 2600 4200 2200 
Q 3875 1800 3600 1500 
Q 3425 1675 3250 1750 
Q 3525 2025 3875 2500 
L 1975 2500 
Q 1750 2500 1350 2475 
L 1350 2900 
Q 1750 2875 1975 2875 
L 4775 2875 
z
M 3050 3925 
Q 3425 3400 3475 3225 
Q 3375 3200 3050 3025 
Q 2850 3475 2675 3700 
Q 2925 3800 3050 3925 
z
" transform="scale(0.015625)"/>
     <path id="SimHei-6027" d="M 3450 4525 
Q 3325 4075 3275 3750 
L 4050 3750 
L 4050 4275 
Q 4050 4700 4025 5100 
L 4550 5100 
Q 4525 4700 4525 4275 
L 4525 3750 
L 5025 3750 
Q 5350 3750 5800 3775 
L 5800 3300 
Q 5350 3325 5025 3325 
L 4525 3325 
L 4525 2000 
L 4975 2000 
Q 5350 2000 5725 2025 
L 5725 1550 
Q 5350 1575 4975 1575 
L 4525 1575 
L 4525 25 
L 5200 25 
Q 5625 25 6025 50 
L 6025 -400 
Q 5625 -375 5200 -375 
L 3275 -375 
Q 2825 -375 2400 -400 
L 2400 50 
Q 2825 25 3250 25 
L 4050 25 
L 4050 1575 
L 3625 1575 
Q 3300 1575 2875 1550 
L 2875 2025 
Q 3200 2000 3625 2000 
L 4050 2000 
L 4050 3325 
L 3175 3325 
Q 3100 2950 2775 2225 
Q 2500 2375 2325 2400 
Q 2675 3125 2775 3650 
Q 2875 4175 2950 4650 
Q 3200 4575 3450 4525 
z
M 1700 5150 
Q 1675 4650 1675 4175 
L 1675 425 
Q 1675 -100 1700 -625 
L 1175 -625 
Q 1200 -100 1200 425 
L 1200 4175 
Q 1200 4700 1175 5150 
L 1700 5150 
z
M 975 3725 
Q 825 2675 700 2150 
Q 450 2200 250 2250 
Q 425 2900 525 3800 
Q 725 3775 975 3725 
z
M 2125 4025 
Q 2325 3625 2525 3000 
Q 2300 2925 2125 2825 
Q 1950 3375 1750 3850 
Q 1950 3950 2125 4025 
z
" transform="scale(0.015625)"/>
     <path id="SimHei-80fd" d="M 2025 -150 
Q 2475 -150 2525 -62 
Q 2575 25 2575 200 
L 2575 550 
L 1225 550 
L 1225 -625 
L 750 -625 
Q 775 -125 775 275 
L 775 1950 
Q 775 2400 750 2750 
L 3050 2750 
Q 3025 2375 3025 1925 
L 3025 -175 
Q 3000 -450 2800 -525 
Q 2600 -600 2225 -650 
Q 2175 -425 2025 -150 
z
M 5800 1625 
Q 5700 1600 5212 1375 
Q 4725 1150 4100 950 
L 4100 250 
Q 4100 -50 4375 -50 
L 5275 -50 
Q 5475 0 5550 575 
Q 5750 475 6050 375 
Q 5875 -425 5475 -425 
L 4125 -425 
Q 3650 -425 3650 50 
L 3650 1675 
Q 3650 2050 3625 2350 
L 4125 2350 
Q 4100 2050 4100 1700 
L 4100 1375 
Q 4350 1450 4762 1650 
Q 5175 1850 5425 2075 
Q 5650 1775 5800 1625 
z
M 4100 4100 
Q 4450 4250 4775 4412 
Q 5100 4575 5425 4825 
Q 5625 4575 5775 4400 
Q 5625 4350 5137 4112 
Q 4650 3875 4100 3700 
L 4100 3325 
Q 4100 3025 4450 3025 
L 5175 3025 
Q 5425 3025 5500 3675 
Q 5750 3550 6000 3450 
Q 5825 2650 5375 2650 
L 4250 2650 
Q 3650 2650 3650 3200 
L 3650 4475 
Q 3650 4775 3625 5125 
L 4125 5125 
Q 4100 4950 4100 4400 
L 4100 4100 
z
M 3025 3075 
Q 2950 3200 2825 3350 
Q 2000 3300 1450 3250 
Q 900 3200 625 3125 
Q 550 3425 450 3650 
Q 625 3725 987 4187 
Q 1350 4650 1575 5175 
Q 1700 5075 1850 5025 
Q 2000 4975 2175 4900 
Q 1975 4750 1762 4450 
Q 1550 4150 1075 3600 
Q 2125 3650 2625 3675 
Q 2325 4075 2200 4200 
Q 2375 4300 2600 4475 
Q 2800 4200 2987 3975 
Q 3175 3750 3475 3400 
Q 3200 3200 3025 3075 
z
M 2575 950 
L 2575 1475 
L 1225 1475 
L 1225 950 
L 2575 950 
z
M 2575 1875 
L 2575 2350 
L 1225 2350 
L 1225 1875 
L 2575 1875 
z
" transform="scale(0.015625)"/>
     <path id="SimHei-63d0" d="M 5600 5025 
Q 5575 4625 5575 3900 
Q 5575 3200 5600 2825 
L 2750 2825 
Q 2775 3325 2775 3900 
Q 2775 4500 2750 5025 
L 5600 5025 
z
M 5250 2375 
Q 5675 2375 6075 2400 
L 6075 1950 
Q 5700 1975 5275 1975 
L 4400 1975 
L 4400 1275 
L 4775 1275 
Q 5225 1275 5625 1300 
L 5625 850 
Q 5225 875 4800 875 
L 4400 875 
L 4400 75 
Q 4675 25 5150 25 
Q 5625 25 6150 100 
Q 6050 -75 5950 -450 
Q 5200 -450 4650 -437 
Q 4100 -425 3700 -250 
Q 3300 -75 2950 250 
Q 2725 -225 2200 -650 
Q 2025 -450 1775 -325 
Q 2300 0 2537 562 
Q 2775 1125 2775 1675 
Q 3075 1550 3325 1525 
Q 3250 1375 3125 725 
Q 3450 300 3925 175 
L 3925 1975 
L 3375 1975 
Q 2850 1975 2350 1950 
L 2350 2400 
Q 2850 2375 3400 2375 
L 5250 2375 
z
M 1125 4475 
Q 1125 4900 1100 5200 
L 1625 5200 
Q 1600 4925 1600 4500 
L 1600 3825 
Q 1975 3825 2350 3850 
L 2350 3400 
Q 1975 3425 1600 3425 
L 1600 2300 
Q 1925 2475 2175 2625 
Q 2175 2425 2200 2175 
Q 1975 2050 1600 1850 
L 1600 0 
Q 1550 -350 1350 -437 
Q 1150 -525 650 -575 
Q 650 -275 500 0 
Q 875 -25 1000 0 
Q 1125 25 1125 225 
L 1125 1675 
Q 825 1550 425 1300 
Q 325 1625 200 1800 
Q 650 1900 1125 2125 
L 1125 3425 
Q 675 3425 350 3400 
L 350 3850 
Q 675 3825 1125 3825 
L 1125 4475 
z
M 5125 3225 
L 5125 3725 
L 3225 3725 
L 3225 3225 
L 5125 3225 
z
M 5125 4150 
L 5125 4600 
L 3225 4600 
L 3225 4150 
L 5125 4150 
z
" transform="scale(0.015625)"/>
     <path id="SimHei-5347" d="M 3600 4600 
Q 3275 4550 2650 4300 
Q 2650 3650 2625 2825 
L 4100 2825 
L 4100 4275 
Q 4100 4775 4075 5100 
L 4650 5100 
Q 4625 4775 4625 4275 
L 4625 2825 
Q 5675 2825 6175 2850 
L 6175 2350 
Q 5725 2375 4625 2375 
L 4625 450 
Q 4625 50 4650 -500 
L 4075 -500 
Q 4100 25 4100 450 
L 4100 2375 
L 2625 2375 
Q 2550 1500 2050 812 
Q 1550 125 700 -450 
Q 575 -225 225 -50 
Q 800 200 1412 887 
Q 2025 1575 2075 2375 
L 875 2375 
Q 575 2375 225 2350 
L 225 2850 
Q 575 2825 875 2825 
L 2100 2825 
Q 2125 3325 2125 4150 
Q 1250 3925 950 3825 
Q 850 4100 600 4300 
Q 1050 4350 1812 4575 
Q 2575 4800 3125 5125 
L 3600 4600 
z
" transform="scale(0.015625)"/>
     <path id="SimHei-78" d="M 2875 125 
L 2275 125 
L 1550 1200 
L 825 125 
L 225 125 
L 1250 1550 
L 300 2925 
L 900 2925 
L 1550 1875 
L 2200 2925 
L 2800 2925 
L 1850 1550 
L 2875 125 
z
" transform="scale(0.015625)"/>
    </defs>
    <use xlink:href="#SimHei-7aef"/>
    <use xlink:href="#SimHei-5230" transform="translate(100 0)"/>
    <use xlink:href="#SimHei-7aef" transform="translate(200 0)"/>
    <use xlink:href="#SimHei-5ef6" transform="translate(300 0)"/>
    <use xlink:href="#SimHei-8fdf" transform="translate(400 0)"/>
    <use xlink:href="#SimHei-5206" transform="translate(500 0)"/>
    <use xlink:href="#SimHei-89e3" transform="translate(600 0)"/>
    <use xlink:href="#SimHei-5bf9" transform="translate(700 0)"/>
    <use xlink:href="#SimHei-6bd4" transform="translate(800 0)"/>
    <use xlink:href="#SimHei-20" transform="translate(900 0)"/>
    <use xlink:href="#SimHei-28" transform="translate(950 0)"/>
    <use xlink:href="#SimHei-50" transform="translate(1000 0)"/>
    <use xlink:href="#SimHei-39" transform="translate(1050 0)"/>
    <use xlink:href="#SimHei-39" transform="translate(1100 0)"/>
    <use xlink:href="#SimHei-2c" transform="translate(1150 0)"/>
    <use xlink:href="#SimHei-20" transform="translate(1200 0)"/>
    <use xlink:href="#SimHei-542b" transform="translate(1250 0)"/>
    <use xlink:href="#SimHei-20" transform="translate(1350 0)"/>
    <use xlink:href="#SimHei-52" transform="translate(1400 0)"/>
    <use xlink:href="#SimHei-61" transform="translate(1450 0)"/>
    <use xlink:href="#SimHei-66" transform="translate(1500 0)"/>
    <use xlink:href="#SimHei-74" transform="translate(1550 0)"/>
    <use xlink:href="#SimHei-29" transform="translate(1600 0)"/>
    <use xlink:href="#SimHei-20" transform="translate(1650 0)"/>
    <use xlink:href="#SimHei-20" transform="translate(1700 0)"/>
    <use xlink:href="#SimHei-20" transform="translate(1750 0)"/>
    <use xlink:href="#SimHei-20" transform="translate(1800 0)"/>
    <use xlink:href="#SimHei-6027" transform="translate(1850 0)"/>
    <use xlink:href="#SimHei-80fd" transform="translate(1950 0)"/>
    <use xlink:href="#SimHei-63d0" transform="translate(2050 0)"/>
    <use xlink:href="#SimHei-5347" transform="translate(2150 0)"/>
    <use xlink:href="#SimHei-3a" transform="translate(2250 0)"/>
    <use xlink:href="#SimHei-20" transform="translate(2300 0)"/>
    <use xlink:href="#SimHei-36" transform="translate(2350 0)"/>
    <use xlink:href="#SimHei-2e" transform="translate(2400 0)"/>
    <use xlink:href="#SimHei-36" transform="translate(2450 0)"/>
    <use xlink:href="#SimHei-78" transform="translate(2500 0)"/>
   </g>
  </g>
 </g>
 <defs>
  <clipPath id="pa313492696">
   <rect x="59.2" y="79.3225" width="934.4" height="208.666875"/>
  </clipPath>
  <clipPath id="pb5d724b876">
   <rect x="59.2" y="322.031875" width="934.4" height="208.666875"/>
  </clipPath>
 </defs>
</svg>
